<?xml version="1.0" encoding="UTF-8"?>
<!-- Natural Earth-derived (World Atlas 110m) Robinson projection. Public Domain. -->
<svg xmlns="http://www.w3.org/2000/svg" viewBox="0 0 2000 1100" width="2000" height="1100" role="img" aria-label="World map (Robinson)">
  <defs>
    <style>
      /* Super-light coastline stroke only; no interior borders when using land-110m */
      .land { fill: #cfe5ff; stroke: #2b6cb0; stroke-width: 0.6; }
    </style>
  </defs>
  <g class="land" opacity="0.98">
    <path d="M792.131,1023.708L792.827,1025.837L793.342,1027.677L785.665,1027.121L778.182,1027.362L772.639,1025.997L772.495,1025.837L769.498,1024.612L777.463,1024.775L785.3,1025.184L786.455,1023.453L786.987,1021.87ZM439.156,1021.274L433.752,1021.893L425.647,1020.299L420.073,1018.687L419.348,1018.416L414.342,1017.157L412.894,1015.437L421.104,1016.165L427.688,1017.608L433.817,1019.228ZM836.997,1014.619L842.568,1016.619L845.708,1019.406L847.266,1021.358L848.761,1023.644L844.158,1024.966L839.175,1026.018L833.317,1026.983L826.656,1027.78L818.346,1027.54L812.814,1026.178L812.169,1024.47L818.776,1023.301L820.735,1021.801L821.613,1019.853L822.095,1018.152L823.204,1016.525L824.338,1014.619L826.171,1014.619L830.96,1013.617ZM531.83,992.495L537.805,993.294L541.323,992.401L541.316,994.185L539.314,995.475L533.482,995.074L527.384,993.294L526.095,991.601ZM514.911,992.401L523.352,994.382L520.829,994.185L515.214,993.688L508.115,992.298L509.514,991.204ZM609.744,984.459L614.751,985.169L618.487,984.565L623.57,987.489L620.128,987.089L615.571,987.289L610.539,987.089L605.542,987.393L600.536,986.383L596.342,984.258L597.912,983.345L603.629,984.056ZM726.765,979.373L728.77,981.725L729.414,983.758L729.627,985.684L725.501,986.391L721.819,987.402L716.621,987.306L717.103,985.282L712.979,985.99L709.113,986.697L705,985.177L703.218,983.046L706.116,981.01L708.404,980.392L713.145,980.595L712.509,977.925L711.435,975.972L708.587,971.693L709.321,969.167L712.566,968.319L715.951,970.322L718.124,972.318L721.36,974.728L724.141,976.999ZM418.397,1041.415L418.397,1041.415L418.397,1041.415L418.665,1041.443L415.887,1039.46L424.771,1040.534L424.805,1040.413L424.925,1040.13L425.04,1039.776L425.15,1039.472L425.212,1039.32L425.71,1039.325L426.212,1039.384L434.858,1040.81L435.07,1039.384L435.271,1039.184L443.243,1038.57L448.51,1039.384L451.133,1039.799L459.037,1040.93L470.495,1041.788L480.389,1042.795L494.615,1043.511L501.713,1042.675L516.836,1043.275L526.831,1044.212L533.138,1043.332L540.093,1042.492L537.195,1040.93L524.13,1040.799L511.747,1039.997L505.809,1038.641L495.217,1037.878L492.027,1036.263L489.802,1034.755L487.918,1033.362L483.774,1031.794L475.803,1030.731L470.151,1029.339L462.12,1028.087L470.967,1028.325L477.543,1027.691L485.329,1029.029L488.975,1027.855L491.541,1026.338L491.558,1024.959L486.856,1023.21L479.833,1021.977L471.975,1020.645L464.169,1020.376L456.526,1019.753L448.725,1019.305L442.92,1017.6L435.357,1016.157L429.25,1014.525L417.622,1009.175L420.314,1009.641L426.46,1011.123L431.588,1010.659L436.179,1010.01L443.018,1012.047L447.935,1011.585L450.924,1010.571L453.157,1009.271L454.509,1007.682L459.267,1007.212L456.042,1005.422L451.686,1003.62L449.921,1001.905L453.378,1001.044L458.236,1002.665L462.441,1001.715L464.801,1000.462L470.046,1000.363L474.421,999.886L477.82,998.712L480.338,997.627L483.423,996.548L486.841,996.846L490.003,997.237L494.728,996.548L501.035,997.432L506.135,997.339L510.201,996.651L516.004,997.135L522.34,997.627L527.378,997.432L533.039,997.534L538.823,997.627L543.8,997.432L545.838,995.952L549.518,995.168L555.651,996.251L559.141,995.364L561.18,993.585L565.519,995.168L568.967,996.94L573.424,998.61L575.625,997.135L582.359,998.999L588.168,999.591L594.149,1000.944L599.128,1000.654L602.937,999.785L608.85,999.979L614.736,1000.654L620.89,1001.516L620.54,999.397L616.298,997.729L612.541,995.952L607.176,995.56L602.985,993.68L600.151,991.79L594.809,987.985L598.528,988.688L603.949,988.991L608.681,988.688L614.075,989.494L619.531,990.997L622.977,992.788L628.498,993.088L632.804,992.392L637.149,991.394L641.352,990.79L646.418,991.988L651.206,991.592L651.033,987.689L656.229,989.996L661.515,990.894L665.938,990.393L670.858,992.392L676.105,992.59L681.292,993.182L686.822,994.279L688.272,992.392L688.302,990.592L693.801,992.59L698.7,992.091L703.499,993.182L707.465,994.869L712.192,994.373L715.347,993.285L718.306,991.988L722.489,991.291L727.533,990.695L731.991,989.996L735.047,988.896L736.25,987.28L735.7,985.064L733.847,982.923L731.286,980.887L728.559,978.832L725.994,976.776L723.783,974.907L722.272,972.825L721.397,970.722L722.112,968.72L722.415,966.501L721.837,964.384L719.665,962.037L717.959,959.894L718.604,957.427L719.999,955.817L721.597,953.763L723.543,952.021L726.082,950.396L726.496,947.993L728.042,946.459L729.995,945.022L733.954,944.698L735.774,942.924L738.282,941.824L741.504,941.155L743.975,939.717L745.603,937.931L748.712,937.268L751.91,938.719L751.15,940.599L747.518,942.264L746.224,943.477L742.621,942.599L739.338,943.153L737.042,944.479L734.63,945.907L733.365,947.559L733.886,949.738L735.201,951.805L738.123,953.651L735.914,954.95L732.189,955.379L730.857,957.213L729.334,958.931L728.025,961.29L728.5,963.318L731.208,965.549L734.334,967.242L738.419,968.511L742.47,970.195L745.305,972.3L747.284,974.289L749.669,976.365L752.558,978.112L754.873,980.064L758.25,984.854L760.553,986.775L762.087,988.792L764.53,990.79L765.673,993.483L764.887,995.56L763.729,997.237L759.11,997.924L758.591,999.684L757.458,1001.326L753.13,1003.143L748.726,1003.908L744.865,1004.949L740.671,1005.993L739.337,1007.965L733.569,1008.151L726.909,1007.965L721.384,1008.337L715.171,1008.337L718.062,1010.203L724.425,1011.035L729.702,1012.325L733.503,1013.973L730.85,1015.429L724.198,1014.973L720.228,1016.157L721.93,1018.051L723.643,1019.845L729.369,1021.35L731.886,1023.028L737.967,1024.626L745.979,1025.283L753.327,1026.415L759.507,1027.691L766.967,1028.955L776.028,1029.574L785.351,1030.652L792.137,1031.794L799.524,1033.068L804.336,1034.83L807.157,1036.195L810.069,1034.899L814.658,1033.808L819.559,1032.618L825.824,1031.644L831.087,1030.579L839.478,1030.5L848.132,1031.034L855.521,1031.944L856.697,1030.267L860.754,1029.11L869.341,1029.029L875.669,1028.169L881.694,1027.293L888.592,1026.734L895.915,1026.011L900.859,1024.959L897.82,1023.468L895.679,1021.885L895.003,1020.199L888.214,1020.376L881.272,1021.09L874.368,1021.09L872.576,1019.398L871.473,1015.977L872.635,1014.973L877.32,1013.886L882.973,1012.786L886.848,1011.402L890.769,1010.01L893.434,1008.151L898.206,1007.309L903.01,1006.652L905.432,1006.27L911.126,1006.083L916.407,1005.422L920.769,1004.474L925.036,1003.333L928.902,1002.187L933.824,1000.654L936.856,998.999L940.177,997.534L940.982,995.56L936.724,994.373L937.735,992.289L940.058,990.695L943.936,989.693L948.047,988.488L951.827,986.88L954.659,984.854L956.327,982.422L959.067,980.984L963.832,981.293L965.921,983.029L970.665,983.231L970.684,981.293L972.582,979.249L976.908,979.763L978.029,981.708L982.772,982.008L987.886,981.09L992.855,980.48L997.372,980.781L999.095,982.923L1003.455,981.196L1007.521,980.268L1012.058,979.55L1016.539,978.832L1020.671,977.596L1025.192,976.776L1028.738,975.632L1031.305,973.765L1034.214,975.122L1038.457,974.396L1041.158,976.874L1043.239,978.734L1047.903,977.703L1049.945,975.632L1054.226,974.18L1059.493,974.495L1060.787,976.464L1064.39,974.495L1068.831,973.873L1073.609,973.666L1077.872,973.765L1082.27,974.396L1086.571,974.701L1088.103,976.464L1090.38,978.014L1094.968,977.088L1099.741,976.874L1104.295,976.874L1108.8,976.776L1113.008,976.053L1117.434,975.427L1121.386,973.973L1125.442,973.033L1129.717,972.508L1133.235,971.04L1136.319,968.091L1139.176,966.291L1143.179,967.141L1144.206,969.039L1147.321,970.304L1151.696,969.886L1153.945,971.774L1156.49,973.141L1161.056,971.883L1163.302,969.567L1167.313,968.62L1172.222,966.821L1176.516,966.08L1181.744,965.017L1185.427,963.851L1189.316,962.572L1193.029,961.401L1196.672,962.037L1201.19,960.116L1204.505,958.615L1208.385,958.717L1212.374,957.427L1214.009,955.491L1218.196,953.978L1222.124,952.893L1226.733,952.021L1230.823,951.589L1234.392,951.918L1238.13,952.462L1240.809,953.978L1240.094,956.348L1242.904,958.179L1244.689,959.681L1249.34,960.329L1251.343,961.825L1253.981,963.318L1257.769,963.64L1261.661,962.572L1266.458,960.329L1269.721,961.502L1273.423,962.148L1276.955,962.784L1280.763,963.207L1284.886,963.207L1284.915,968.83L1283.922,970.195L1281.955,972.617L1277.249,973.973L1272.852,975.945L1272.092,978.014L1276.63,977.907L1274.744,979.967L1271.451,981.911L1268.177,984.047L1270.101,985.667L1274.296,986.173L1279.467,985.265L1283.052,983.231L1285.702,981.293L1289.019,979.657L1292.582,978.112L1294.86,976.258L1298.738,973.666L1301.617,973.141L1306.369,972.924L1310.832,972.3L1315.541,971.457L1318.969,969.358L1321.543,967.352L1325.723,965.338L1330.707,963.952L1334.917,962.894L1338.455,961.078L1341.469,960.116L1345.096,959.255L1348.874,959.792L1353.006,959.255L1357.548,958.615L1361.902,958.931L1366.023,957.427L1370.838,953.763L1371.295,955.276L1371.362,957.864L1374.082,958.931L1377.745,959.366L1382.251,958.717L1386.171,959.144L1390.001,959.255L1393.038,958.717L1396.295,959.042L1398.529,960.218L1402.885,959.468L1407.386,959.468L1411.834,958.717L1415.547,959.468L1419.862,957.641L1423.518,955.817L1427.685,954.296L1436.43,950.18L1438.523,950.941L1440.46,952.462L1441.593,954.408L1444.005,957.752L1447.999,957.864L1451.852,957.864L1456.946,957.213L1462.145,956.46L1466.993,954.95L1471.37,953.323L1476.278,953.108L1480.532,951.918L1482.831,953.005L1483.334,954.735L1484.648,956.46L1489.459,956.245L1490.962,957.641L1494.567,959.042L1499.251,959.579L1504.013,959.144L1509.037,957.427L1513.578,955.705L1517.795,955.276L1520.814,956.031L1524.602,956.571L1529.449,955.705L1533.228,955.705L1536.357,956.245L1539.643,956.785L1544.459,955.817L1549.918,954.95L1554.436,954.735L1559.222,954.735L1563.683,954.193L1567.967,953.763L1572.131,951.045L1574.811,948.758L1575.796,950.283L1573.769,952.78L1572.605,955.062L1572.271,956.888L1574.679,957.864L1579.797,957.539L1585.424,957.427L1589.573,957.102L1595.059,957.102L1599.131,956.999L1604.361,957.213L1608.513,957.641L1609.348,959.366L1606.028,961.401L1606.714,962.995L1609.553,964.274L1612.387,965.659L1616.485,966.611L1620.926,967.452L1623.978,968.301L1628.471,968.41L1633.53,966.611L1635.161,968.091L1635.993,969.777L1637.854,971.04L1642.058,971.566L1645.875,972.191L1644.894,974.289L1647.647,975.534L1647.934,977.391L1651.148,978.219L1655.938,978.112L1659.765,978.423L1664.713,978.316L1668.838,978.734L1672.157,979.453L1674.315,980.683L1676.785,981.708L1677.059,983.231L1673.215,985.265L1668.082,987.08L1662.399,989.39L1657.928,991.196L1652.483,993.285L1646.052,994.082L1640.703,995.859L1633.859,996.94L1628.692,998.906L1622.785,1000.753L1617.218,1002.286L1611.912,1004.285L1607.546,1006.083L1602.99,1008.24L1599.573,1010.01L1597.924,1011.864L1595.13,1013.609L1593.399,1015.248L1598.746,1015.883L1595.842,1017.872L1587.84,1018.594L1580.278,1019.575L1573.156,1019.753L1564.572,1022.328L1559.444,1024.385L1554.579,1025.934L1549.4,1027.458L1550.983,1028.793L1548.993,1030.427L1548.567,1031.866L1549.654,1033.138L1551.453,1034.321L1553.624,1035.479L1558.336,1036.618L1555.51,1038.362L1562.927,1039.12L1562.839,1039.384L1562.508,1040.402L1573.906,1039.525L1578.339,1040.603L1581.603,1041.415L1538.371,1054.63L1000,1054.63L461.629,1054.63ZM679.03,881.909L686.732,885.541L693.967,887.042L693.138,890.056L688.813,890.35L685.512,888.236L685.023,890.665L681.842,892.52L676.474,891.841L672.254,890.046L666.942,889.173L659.447,885.806L653.121,882.564L643.424,875.771L647.941,877.045L656.47,881.099L663.751,883.27L664.943,880.494L664.661,876.336L667.993,873.825L671.708,874.546L674.715,877.364ZM716.672,865.17L721.47,867.923L720.764,870.062L714.92,871.888L711.995,869.752L708.905,872.496L705.499,869.752L709.974,866.092L714.611,867.623ZM1343.484,856.637L1335.825,857.034L1336.911,853.752L1338.568,851.199L1339.364,849.931L1341.822,851.879L1346.184,852.654L1345.903,853.825ZM1750.01,800.932L1753.637,803.109L1756.984,802.245L1761.772,801.038L1764.59,801.455L1760.105,808.941L1756.914,811.104L1752.942,816.169L1752.342,814.446L1745.798,818.827L1744.991,818.486L1742.003,818.285L1742.499,812.913L1744.526,808.76L1745.066,803.269L1746.991,800.376ZM1891.908,801.732L1891.129,804.336L1896.712,801.786L1896.196,804.442L1894.167,807.098L1890,810.017L1882.993,814.648L1878.356,817.179L1877.777,820.197L1873.809,820.272L1867.519,822.64L1862.727,826.746L1854.617,833.056L1848.322,835.84L1844.331,837.62L1839.851,837.483L1838.335,835.439L1833.269,834.997L1834.328,832.707L1840.792,828.08L1852.182,821.897L1856.398,820.718L1861.97,818.327L1868.946,815.031L1874.564,811.774L1880.438,807.076L1883.598,805.488L1886.984,801.967L1892.744,799.052ZM1920.624,771.565L1920.21,778.245L1923.076,773.917L1924.362,775.646L1922.018,780.445L1924.87,782.506L1928.064,783.021L1932.67,780.595L1934.833,781.336L1929.733,786.958L1925.551,790.658L1921.672,790.529L1918.933,792.448L1917.473,795.171L1915.854,796.349L1911.376,799.757L1905.555,804.069L1899.661,806.586L1900.044,804.933L1898.586,804.026L1905.438,798.838L1906.28,795.353L1902.48,792.823L1904.221,790.529L1909.505,788.32L1913.683,783.439L1916.137,779.339L1916.728,775.088L1917.585,773.971L1916.695,771.35L1915.952,765.729L1916.366,761.231L1918.642,760.735L1919.447,764.267L1922.587,765.912ZM1918.916,682.535L1916.426,684.064L1913.861,682.341L1910.678,679.477L1908.004,676.106L1905.489,671.627L1905.272,669.462L1907.612,669.559L1910.17,671.724L1912.046,673.877L1913.354,675.665L1916.845,679.606ZM1989.067,651.867L1990.53,653.708L1988.777,657.025L1985.125,657.897L1982.276,657.111L1982.44,654.311L1985.112,652.125L1987.432,652.922ZM1999.285,646.881L1995.381,648.442L1991.528,649.778L1991.368,647.409L1994.448,646.106L1996.289,645.75L2000,643.77L1999.285,646.881ZM0,643.77L0.001,643.769L1.074,643.478L1.095,646.536L0.715,646.881L0.715,646.881L0.715,646.881L0,643.77ZM1931.936,646.31L1929.915,647.15L1928.655,644.361L1929.211,642.66ZM1929.833,636.565L1929.711,641.691L1928.374,640.894L1927.143,641.238L1926.716,639.483L1927.538,634.605ZM1279.007,627.789L1279.494,635.445L1280.763,638.417L1280.016,641.475L1278.919,643.349L1277.267,639.612L1276.093,641.497L1276.858,646.213L1276.203,648.905L1274.567,650.381L1273.84,655.765L1271.133,663.184L1267.752,671.95L1263.427,684.01L1260.634,692.851L1257.571,700.228L1252.988,701.735L1247.96,704.427L1244.962,702.801L1240.833,700.529L1239.572,697.169L1239.636,691.527L1238.066,686.455L1237.873,681.878L1239.179,677.291L1241.792,676.193L1241.956,674.071L1244.921,669.258L1245.699,665.198L1244.609,662.183L1243.834,658.177L1243.739,652.319L1245.888,648.755L1246.879,644.717L1249.652,644.48L1252.826,643.177L1254.952,642.024L1257.397,641.949L1260.764,638.32L1265.564,634.4L1267.396,631.202L1266.773,628.478L1269.101,629.242L1272.392,624.827L1272.695,620.994L1274.674,618.151L1276.477,620.886L1277.834,623.589ZM1799.981,629.113L1801.209,634.11L1805.177,631.708L1806.593,634.4L1808.849,636.888L1807.783,639.709L1808.002,645.158L1808.242,648.335L1809.491,649.11L1809.905,654.548L1808.68,657.854L1809.545,662.161L1814.79,665.489L1818.006,668.515L1821.077,671.282L1819.993,672.822L1822.225,676.817L1822.728,683.698L1825.263,682.298L1826.829,685.055L1828.414,684.075L1827.689,690.816L1830.579,694.725L1832.489,697.159L1835.336,702.306L1835.265,707.421L1834.211,711.05L1832.501,714.98L1833.158,720.386L1830.737,726.018L1828.658,728.969L1824.908,734.644L1823.474,738.294L1820.409,742.849L1815.388,748.643L1809.972,751.765L1805.624,756.697L1802.278,759.842L1797.906,765.332L1794.225,768.492L1790.37,773.24L1787.303,777.611L1786.451,779.619L1782.216,781.819L1776.223,782.055L1769.922,784.652L1766.138,787.108L1761.422,789.832L1758.715,787.022L1756.151,785.907L1758.794,782.602L1755.27,783.804L1748.146,788.395L1744.6,786.679L1742.188,785.671L1739.446,785.22L1735.378,783.386L1734.069,779.479L1735.564,774.658L1735.955,771.457L1734.619,768.878L1729.909,768.116L1733.113,765.031L1734.047,760.315L1729.395,764.708L1724.137,765.88L1728.569,762.361L1731.061,758.689L1734.511,755.577L1736.152,750.861L1729.44,756.288L1725.134,758.463L1720.793,763.524L1717.851,760.908L1719.535,757.537L1718.205,752.918L1716.383,750.538L1717.996,749.062L1712.695,745.207L1709.005,745.024L1705.047,741.934L1695.195,742.537L1687.4,744.809L1680.475,746.93L1675.527,746.51L1668.614,749.773L1663.407,751.248L1661.081,754.576L1658.07,757.16L1653.484,757.322L1649.927,757.882L1645.673,756.73L1641.588,757.419L1637.815,757.71L1633.311,761.102L1631.875,760.822L1628.48,762.62L1625.129,764.633L1621.357,764.386L1617.81,764.386L1613.774,760.326L1611.391,759.109L1612.876,755.47L1615.846,754.597L1617.281,753.154L1617.919,750.872L1620.144,746.446L1620.839,742.677L1620.109,736.237L1620.374,732.608L1621.689,728.99L1620.726,724.844L1621.116,722.971L1619.412,720.44L1620.051,715.454L1618.226,710.425L1618.12,707.712L1619.846,710.458L1619.433,704.557L1621.693,706.398L1622.729,708.864L1623.414,705.601L1621.849,700.594L1621.733,698.591L1620.826,696.685L1622.147,693.013L1623.553,691.441L1624.905,688.264L1625.027,684.538L1628.121,679.962L1627.648,684.807L1630.788,680.435L1635.635,678.303L1638.823,675.59L1643.449,673.253L1646.039,672.757L1647.426,673.544L1652.2,671.175L1655.665,670.464L1656.749,669.075L1658.326,668.493L1661.338,668.644L1667.496,666.781L1671.027,663.96L1673.062,660.557L1676.885,657.326L1677.585,654.785L1678.309,651.328L1683.06,645.923L1684.503,651.414L1687.091,650.144L1685.605,647.139L1687.833,644.049L1690.056,645.427L1691.485,640.592L1694.994,637.459L1696.695,634.95L1699.653,633.862L1699.979,632.085L1702.322,632.828L1702.641,631.234L1705.212,630.319L1708.016,629.458L1711.727,632.376L1714.295,636.145L1717.755,636.188L1721.211,636.791L1720.539,633.291L1723.914,628.198L1726.666,626.529L1725.992,624.946L1728.886,621.306L1732.539,619.066L1735.3,619.82L1740.149,618.625L1740.438,615.373L1736.578,613.273L1739.659,612.347L1743.18,613.93L1745.85,616.536L1750.356,618.162L1752.024,617.516L1755.237,619.475L1758.72,617.656L1760.762,618.205L1762.22,616.988L1764.376,620.132L1762.441,623.535L1759.982,626.109L1758.025,626.324L1758.31,628.865L1756.224,632.042L1753.769,635.176L1753.894,636.963L1757.75,640.485L1761.691,642.52L1764.173,644.717L1767.518,648.485L1769.078,648.475L1771.674,650.101L1772.161,652.071L1777.034,654.225L1781.108,652.05L1782.853,648.636L1784.491,645.815L1785.792,642.326L1788.356,637.265L1788.07,634.185L1788.758,632.344L1788.669,628.693L1790.102,623.901L1791.346,622.609L1790.771,620.488L1792.56,617.117L1794.045,613.617L1794.405,611.808L1796.779,609.418L1797.98,612.53L1797.863,616.525L1799.172,617.289L1799.038,619.971L1800.623,623.201L1800.525,626.809ZM1906.524,608.244L1907.806,610.43L1903.908,610.387L1902.279,606.478L1905.427,608.007ZM1675.151,606.693L1672.784,606.812L1665.763,602.354L1671.084,601.104L1673.864,603.043L1675.652,604.981ZM1899.917,604.357L1897.725,604.507L1894.375,603.861L1893.317,602.881L1893.938,600.351L1897.516,601.352L1899.201,602.687ZM1904.748,602.623L1903.768,603.797L1900.224,598.283L1899.464,594.482L1901.36,594.482L1902.848,599.575ZM1696.032,606.058L1691.105,607.458L1690.514,606.693L1691.219,604.529L1693.952,600.652L1699.704,598.122L1700.47,596.625L1705.402,595.193L1709.331,594.977L1711.148,594.18L1713.202,594.977L1711.008,596.7L1704.953,599.478L1700.102,601.309ZM1660.492,593.05L1662.386,594.751L1665.892,594.234L1667.081,596.937L1660.512,598.219L1656.556,599.069L1653.558,599.015L1655.748,595.354L1658.837,595.3ZM1688.526,593.05L1687.43,596.582L1678.881,598.391L1671.485,597.605L1671.663,595.279L1676.197,593.954L1679.563,595.86L1683.33,595.376ZM1895.501,594.59L1895.615,595.871L1891.486,593.168L1888.635,590.885L1886.728,588.764L1887.613,588.118L1890.059,589.647L1894.386,592.576ZM1882.996,588.301L1881.835,588.656L1879.518,587.213L1877.436,584.596L1877.804,583.53L1880.934,586.223ZM1609.03,584.672L1619.752,585.307L1621.133,582.68L1631.352,585.738L1633.134,589.862L1641.47,591.025L1648.086,594.805L1641.518,597.228L1635.533,594.665L1630.46,594.837L1624.686,594.363L1619.52,593.222L1613.183,590.799L1609.108,590.164L1606.717,590.961L1596.669,588.344L1595.858,585.609L1590.737,585.135L1594.911,579.062L1601.697,579.438L1606.092,581.926L1608.388,582.41ZM1755.634,581.086L1752.453,585.415L1752.231,580.623L1753.364,578.34L1754.664,576.186L1755.825,578.049ZM1873.976,584.941L1872.35,585.576L1870.124,583.132L1867.963,579.094L1867.101,574.248L1867.907,573.634L1868.392,575.519L1869.991,576.962L1872.427,581L1874.907,583.154ZM1852.759,576.402L1849.775,576.919L1848.765,578.706L1845.586,580.257L1842.611,581.743L1839.623,581.732L1835.152,579.891L1832.083,578.114L1832.677,576.143L1837.646,577.069L1840.749,576.574L1841.791,573.527L1842.609,573.365L1842.94,576.746L1846.163,576.262L1847.878,574.087L1851.168,571.814L1850.812,568.067L1854.175,567.949L1855.24,568.993L1854.896,572.514ZM1714.656,563.555L1712.457,565.666L1708.629,564.503L1707.653,561.767L1713.347,561.455ZM1732.85,561.229L1734.673,566.096L1730.066,563.469L1725.398,562.941L1722.206,563.361L1718.333,563.135L1719.786,559.635L1726.752,559.377ZM1859.668,570.178L1857.792,571.868L1856.994,568.121L1855.828,565.655L1853.394,563.577L1850.332,560.863L1846.368,558.989L1847.986,557.449L1850.949,559.237L1852.789,560.637L1855.083,562.166L1857.188,564.836L1859.213,566.872ZM1753.823,548.878L1755.133,559.161L1760.78,562.974L1765.73,556.222L1772.286,552.388L1777.283,552.377L1782.04,554.596L1786.137,556.879L1792.121,558.095L1801.687,562.478L1811.874,566.118L1815.563,569.37L1818.462,572.568L1819.092,576.326L1828.159,580.257L1829.287,583.627L1824.067,584.317L1824.984,588.548L1829.63,592.727L1832.624,599.478L1835.85,599.263L1835.342,602.084L1839.561,603.161L1837.742,604.357L1843.378,607.038L1842.553,608.879L1838.796,609.321L1837.605,607.673L1832.897,606.962L1827.349,606.004L1823.429,601.944L1820.592,598.445L1818.201,592.877L1811.138,590.088L1806.244,591.908L1802.634,594.008L1802.911,598.703L1798.308,600.889L1795.288,599.823L1789.509,599.554L1785.001,594.331L1779.422,593.06L1777.877,594.87L1770.763,595.063L1773.569,589.884L1777.237,588.118L1776.281,581.204L1773.913,575.863L1763.373,570.479L1758.778,569.941L1750.662,564.061L1748.85,567.152L1746.657,567.712L1745.503,565.386L1745.611,562.618L1741.45,559.495L1747.576,557.202L1751.577,557.32L1751.164,555.64L1742.932,555.629L1740.802,551.839L1735.808,550.665L1733.49,547.51L1741.072,545.97L1743.96,543.903L1752.963,546.509ZM1703.766,532.51L1699.326,538.831L1695.103,540.048L1689.696,538.809L1680.33,539.121L1675.417,540.037L1674.62,544.85L1679.572,550.514L1682.647,547.629L1693.148,545.464L1692.673,548.393L1690.236,547.467L1687.733,551.204L1682.726,553.67L1687.794,561.821L1686.694,564.007L1691.361,571.351L1691.091,575.529L1688.001,577.392L1685.918,575.163L1688.913,569.951L1683.257,572.417L1681.963,570.651L1682.82,568.196L1678.951,564.47L1679.607,558.268L1675.782,560.195L1675.956,567.615L1675.696,576.725L1672.092,577.64L1669.787,575.777L1671.696,569.919L1671.116,563.781L1668.752,563.738L1667.174,559.377L1669.622,555.209L1670.535,550.159L1673.415,540.564L1674.577,537.948L1679.319,533.22L1683.736,535.094L1690.826,535.977L1697.277,535.708L1702.768,531.088ZM1723.176,534.34L1722.921,539.908L1720.026,539.283L1719.179,543.149L1721.463,546.509L1719.877,547.273L1717.641,543.246L1715.943,535.116L1716.986,530.033L1718.789,527.718L1719.277,531.185L1722.605,531.745ZM1593.612,578.782L1587.385,578.911L1582.9,573.591L1575.949,568.401L1573.697,564.546L1569.618,559.366L1566.942,554.596L1562.773,545.69L1557.849,540.381L1556.177,534.911L1554.024,529.947L1548.884,525.941L1545.801,520.492L1541.453,516.939L1535.298,509.918L1534.682,506.687L1538.288,506.945L1547.025,508.173L1552.268,514.386L1556.78,518.705L1559.962,521.354L1565.459,528.192L1571.186,528.288L1575.976,532.65L1579.286,537.98L1583.565,540.887L1581.303,546.078L1584.5,548.285L1586.521,548.447L1587.406,552.884L1589.292,556.437L1593.404,556.997L1596.019,561.024L1594.298,568.939ZM1662.326,529.925L1668.732,535.805L1662.084,536.559L1660.224,540.898L1660.444,546.659L1654.984,551.01L1654.698,557.352L1652.171,567.076L1651.441,564.815L1644.926,567.679L1642.87,563.792L1638.881,563.426L1636.146,561.391L1629.389,563.673L1627.457,560.604L1623.765,560.949L1619.158,560.217L1618.499,551.677L1615.735,549.911L1613.077,544.473L1612.309,538.906L1612.901,533.005L1616.162,528.784L1620.332,530.959L1624.638,529.774L1625.636,524.39L1628.005,523.184L1634.693,521.806L1638.519,516.777L1641.097,512.75L1643.193,510.37L1647.788,506.892L1651.875,502.466L1654.409,497.491L1656.669,497.469L1659.749,500.689L1660.169,503.456L1663.961,505.233L1668.727,507.139L1668.448,509.638L1664.707,509.95L1665.89,513.062L1661.856,515.226L1658.908,520.966L1663.227,526.996ZM1707.831,488.015L1708.717,492.236L1709.294,495.811L1707.777,501.626L1705.293,495.143L1702.887,498.374L1704.976,503.058L1703.552,506.041L1696.735,502.347L1694.873,497.738L1696.365,494.723L1692.601,491.708L1691.033,494.346L1688.372,494.099L1684.473,497.652L1683.422,495.789L1685.246,490.427L1688.642,488.639L1691.501,486.238L1693.7,489.124L1697.84,487.379L1698.519,484.536L1702.456,484.375L1701.711,479.454L1706.508,482.469L1707.239,485.667ZM1455.533,502.121L1450.702,503.575L1447.837,498.514L1446.437,489.371L1448.43,479.044L1452.496,482.577L1455.334,487.056L1458.361,493.69L1457.803,500.312ZM659.149,477.225L654.444,477.925L653.464,477.354L655.179,475.599L655.183,473.09L658.445,472.26L659.6,472.487ZM1693.409,476.148L1691.594,478.248L1690.189,482.264L1688.591,484.149L1684.776,479.744L1685.775,478.043L1687.018,476.266L1687.231,472.314L1690.271,471.937L1689.812,476.223L1693.317,470.085ZM1663.289,482.275L1656.315,488.316L1658.72,483.858L1662.433,479.938L1665.406,475.534L1667.72,469.213L1669.224,474.403L1665.866,477.903ZM1680.615,465.885L1684.168,467.856L1687.726,467.845L1687.91,470.505L1685.591,473.208L1682.237,475.125L1681.742,472.163L1681.809,468.922ZM1700.62,464.163L1702.978,471.27L1698.493,469.579L1698.821,471.722L1700.587,475.642L1698.069,477.074L1697.402,472.594L1695.677,472.26L1694.405,468.416L1697.738,468.922L1697.391,466.51L1693.433,461.654L1698.793,461.793ZM1677.759,458.401L1676.915,463.893L1674.159,460.717L1670.724,455.871L1675.53,456.108ZM1671.459,423.824L1675.186,425.633L1676.589,423.986L1677.393,425.601L1676.935,428.239L1679.596,432.794L1678.984,438.081L1676.028,440.192L1675.922,445.318L1677.862,450.39L1680.902,451.09L1683.267,450.336L1690.694,453.868L1690.594,457.325L1692.611,458.854L1692.383,461.783L1687.668,458.66L1685.184,455.322L1684.052,457.658L1680.019,453.846L1675.063,454.783L1672.116,453.383L1672.056,450.756L1673.584,449.13L1671.722,447.665L1671.309,449.959L1668.069,446.298L1666.856,443.53L1665.729,437.435L1668.288,439.535L1667.285,429.574L1668.09,423.813ZM636.822,425.579L635.256,427.184L631.092,427.141L627.82,427.367L627.764,424.642L628.651,423.716L633.171,423.749L635.946,424.309ZM573.941,427.862L572.15,428.928L569.149,427.905L566.236,425.59L567.079,424.136L569.44,423.695L570.691,423.91L574.353,424.481L577.114,426.01L577.843,427.744ZM599.277,415.123L603.954,416.125L604.752,415.037L609.062,415.069L612.161,416.706L613.63,416.545L614.382,418.795L617.419,418.677L617.04,420.572L619.486,420.798L621.956,423.135L619.645,425.719L617.152,424.341L614.594,424.61L612.791,424.309L611.678,425.461L609.525,425.859L608.826,424.309L606.898,425.224L604.245,429.585L602.929,428.573L602.836,426.742L599.258,425.665L596.601,426.107L593.28,425.644L590.564,426.828L587.805,424.847L588.505,422.801L593.509,423.684L597.639,424.19L599.782,422.78L597.552,420.023L597.863,417.589L594.495,416.598L595.93,414.843ZM1610.49,422.715L1606.198,425.773L1601.342,423.803L1600.29,418.321L1602.527,415.446L1608.264,413.659L1611.448,413.809L1613.102,416.243L1611.155,419.043ZM140.015,420.13L138.949,421.197L137.787,420.292L138.368,418.515L138.015,416.189L138.465,415.489L139.677,414.445L139.594,413.196L140.052,412.603L140.441,412.722L142.314,413.799L143.159,414.348L143.844,415.199L144.716,417.428L144.491,417.783L142.02,419.14ZM139.431,410.202L137.455,410.665L136.845,409.319L136.335,408.802L136.372,408.404L137.038,407.865L138.856,408.468L140.071,409.437ZM136.5,406.821L136.156,407.499L133.245,407.316L133.852,406.541ZM131.79,405.895L131.402,406.261L131.047,406.175L129.18,405.948L128.842,404.516L128.689,404.258L130.376,403.375L130.729,403.784ZM123.532,401.695L122.719,402.32L121.172,401.167L121.568,400.704L122.579,400.08L123.813,400.209ZM562.384,396.709L564.259,399.035L569.494,398.324L571.244,399.811L575.409,403.752L578.491,406.627L580.325,406.541L583.445,407.833L582.838,409.631L586.877,409.89L590.75,412.496L589.928,413.982L586.158,414.789L582.404,415.102L578.667,414.606L570.682,415.22L574.797,411.677L572.75,410.019L569.247,409.599L567.565,407.758L566.702,404.139L563.56,404.387L558.645,402.675L557.173,401.34L550.134,400.36L548.379,399.121L550.649,397.528L545.293,397.205L540.91,400.51L538.622,400.597L537.621,402.147L534.794,402.847L532.538,402.244L535.697,400.274L537.197,397.98L539.883,396.569L542.861,395.32L547.094,394.717L548.513,394.017L553.194,394.469L557.511,394.545ZM574.964,390.388L573.581,390.7L572.685,387.039L570.883,385.198L572.639,381.16L574.253,381.407L575.432,386.695ZM1665.502,396.548L1664.17,401.77L1660.233,396.397L1658.66,391.68L1660.593,385.424L1663.915,380.61L1666.871,382.506L1666.718,386.35ZM576.078,372.437L569.962,373.46L569.994,371.102L572.63,370.596L576.202,370.79ZM580.56,372.373L578.877,376.895L578.005,376.088L578.632,372.76L576.63,370.24L576.736,369.519ZM1715.77,324.281L1717.406,326.467L1716.072,330.311L1713.015,328.276L1710.899,329.751L1711.049,333.477L1706.822,331.668L1705.592,328.642L1706.91,324.852L1710.256,325.584L1711.257,322.913ZM1182.677,314.608L1179.418,317.306L1179.957,318.499L1180.169,319.015L1175.023,321.6L1172.333,320.77L1170.83,318.219L1173.321,317.983L1173.679,317.951L1174.268,316.413L1178.086,316.499ZM1125.2,314.393L1128.271,316.532L1132.353,316.166L1136.334,316.618L1136.299,317.725L1139.108,316.962L1138.609,318.843L1131.026,319.381L1130.994,318.327L1124.431,317.091ZM1081.081,298.373L1079.487,303.363L1080.372,305.327L1079.456,308.581L1075.296,306.197L1072.595,305.51L1065.131,302.289L1065.692,299.027L1071.837,299.607L1077.144,298.92ZM1047.408,279.532L1050.671,284.005L1050.277,292.377L1047.903,291.97L1045.862,294.082L1043.838,292.409L1043.371,284.774L1042.055,281.164L1044.906,281.485ZM1740.089,305.274L1740.715,310.342L1743.213,313.523L1742.629,317.994L1737.28,320.986L1728.14,321.373L1723.822,328.642L1719.185,326.198L1716.822,321.438L1708.221,322.838L1703.243,325.842L1697.068,325.961L1704.456,330.645L1705.179,341.456L1702.718,344.127L1699.186,341.661L1698.303,335.922L1694.178,334.069L1690.239,329.708L1694.471,327.748L1695.541,323.753L1699.439,320.458L1701.346,316.123L1710.985,314.221L1717.247,315.521L1717.247,304.243L1722.272,307.271L1726.72,300.927L1728.391,298.469L1727.404,290.716L1722.437,283.61L1722.216,279.617L1726.975,278.465L1735.06,287.211L1737.825,292.345L1736.542,298.727ZM1048.955,273.594L1047.457,278.454L1045.076,277.175L1043.731,272.933L1044.67,270.601L1047.858,268.196ZM1728.449,260.884L1732.93,262.222L1734.669,259.568L1740.67,266.612L1734.273,268.335L1733.856,274.584L1723.062,270.282L1724.617,277.164L1718.98,277.26L1714.351,271.006L1713.758,266.165L1718.946,265.814L1714.537,257.138L1712.672,252.271L1723.113,258.783ZM682.371,246.048L685.737,246.88L690.409,246.712L687.153,249.263L685.191,249.664L679.668,247.028L679.1,244.942L681.607,243.016ZM696.697,230.195L694.274,230.31L688.573,228.364L685.036,225.449L686.9,224.938L692.787,226.483L696.928,229.065ZM391.512,233.881L388.471,234.74L382.236,231.922L382.211,229.734L379.299,227.57L379.618,225.815L375.364,224.697L375.904,221.361L377.368,219.94L381.474,221.278L383.799,222.202L387.903,222.857L388.061,224.979L388.517,227.904L391.711,230.456ZM727.545,220.448L722.618,225.825L726.441,223.751L729.317,225.063L726.947,227.215L730.798,228.908L733.496,227.403L737.83,229.305L735.023,233.839L738.758,232.78L738.487,236.061L738.968,239.914L735.406,245.384L733.1,245.616L730.134,244.447L732.607,239.358L731.454,238.57L724.19,243.963L721.277,243.742L725.608,240.829L721.274,239.315L715.85,239.683L706.29,239.494L706.085,237.656L709.832,235.474L708.202,233.797L713.501,230.069L721.666,220.261L725.814,216.78L730.699,214.67L732.85,214.939L731.372,216.593ZM372.26,200.034L377.212,199.553L370.073,206.434L370.32,211.325L368.41,211.314L367.752,208.533L368.259,205.735L367.421,203.846L368.785,201.18L370.691,199.256ZM1696.917,220.085L1710.467,230.99L1701.646,228.95L1705.33,237.898L1714.817,244.258L1717.799,248.609L1711.323,244.858L1711.472,249.674L1706.849,244.447L1703.027,238.402L1697.501,231.712L1695.099,227.047L1688.782,218.83L1680.942,212.821L1674.168,204.503L1676.082,201.723L1671.664,198.918L1672.977,198.07L1677.865,202.072L1684.709,207.915L1689.761,213.905ZM967.437,210.84L958.739,214.442L951.976,213.523L956.227,207.164L954.108,200.996L960.806,196.262L964.503,193.449L968.446,193.206L973.335,196.925L970.644,201.078L971.264,205.407ZM1059.239,190.59L1056.833,195.445L1051.665,192.059L1050.829,189.568L1057.515,187.597ZM294.866,181.614L287.897,183.876L287.14,182.348L289.377,179.568L295.787,177.465L299.19,176.565L301.809,176.965L301.8,178.796ZM986.343,172.644L981.3,179.026L985.994,178.215L991.012,178.245L989.75,183.072L985.481,188.415L990.285,188.799L994.755,196.507L997.972,197.477L1000.882,204.369L1002.242,206.763L1008.044,207.925L1007.496,211.82L1005.052,213.606L1007.002,216.759L1002.663,219.971L996.184,219.909L987.901,221.6L985.646,220.396L982.39,223.262L977.902,222.566L974.418,224.917L971.858,223.689L979.155,217.246L983.516,215.931L975.969,214.908L974.673,212.48L979.757,210.593L977.228,207.308L978.235,203.333L985.306,203.887L986.056,200.371L982.907,196.568L977.229,195.506L976.166,193.876L977.954,191.198L976.462,189.547L973.857,192.374L973.786,186.617L971.572,183.585L973.496,177.455L977.227,172.664L980.846,173.132ZM256.23,165.162L252.359,166.072L250.739,164.984L249.962,163.398L255.589,162.405L258.487,162.936ZM651.582,152.177L648.06,155.189L646.397,154.703L646.275,152.992L646.723,152.595L649.461,150.879L651.184,151.005ZM641.995,149.012L634.878,152.168L631.857,152.042L631.884,150.492L636.836,147.854L642.783,147.912ZM257.436,142.922L258.645,144.005L262.124,143.42L263.644,144.918L266.959,145.677L265.792,146.293L260.907,147.497L259.221,146.264L258.926,145.235L254.66,145.562L254.296,145.062ZM638.93,132.402L638.026,134.842L640.805,133.983L642.278,135.446L645.664,137.372L649.422,139.126L648.075,141.81L651.525,141.37L653.431,143.248L648.454,145.033L642.582,143.67L641.816,141.122L635.561,144.13L627.426,147.073L628.159,143.746L621.909,144.293L627.582,141.495L631.166,137.058L636.185,131.942ZM939.007,127.982L937.605,131.557L941.97,135.351L935.917,139.641L922.979,143.516L919.089,144.543L913.521,143.708L901.76,141.916L906.432,139.421L897.601,136.669L905.365,135.588L905.475,133.946L896.805,132.656L900.376,129.046L906.909,128.233L912.831,131.979L919.738,128.971L924.801,130.534L932.083,127.59ZM683.511,124.168L678.646,124.446L679.351,121.772L683.111,118.724L687.388,117.972L689.642,119.469L688.196,121.8L687.236,122.557ZM1252.674,279.073L1256.237,283.545L1258.717,283.845L1260.657,285.543L1256.515,286.045L1256.59,290.962L1256.145,293.182L1254.519,294.661L1255.248,297.804L1257.777,302.483L1262.985,303.803L1267.225,306.981L1274.907,308.076L1282.797,306.401L1283.011,304.909L1281.127,300.433L1280.499,293.803L1276,291.659L1276.394,287.318L1272.884,286.954L1272.836,281.634L1278.055,283.182L1282.119,281.164L1277.483,277.377L1275.146,273.775L1271.395,275.384L1271.946,280.001L1269.396,275.917L1268.761,274.382L1269.395,271.762L1267.895,269.569L1261.471,267.42L1257.828,261.787L1254.634,260.194L1253.972,258.157L1259.028,258.751L1258.081,254.173L1262.096,253.159L1266.732,254.089L1266.046,248.008L1264.124,244.163L1259.218,244.458L1254.593,242.942L1249.537,245.679L1245.208,246.986L1243.815,250.677L1239.201,251.701L1235.688,258.157L1241.63,264.113L1242.075,268.345L1249.263,275.757ZM1768.676,136.175L1768.686,136.203L1766.735,138.677L1760.582,138.258L1768.695,141.265L1777.816,145.937L1781.947,147.468L1785.701,149.824L1786.663,151.344L1776.787,150.095L1770.259,154.411L1767.213,155.082L1765.66,159.132L1763.671,162.68L1765.326,165.33L1753.93,161.306L1747.855,165.874L1743.183,163.703L1741.881,166.21L1734.913,165.409L1738.015,169.253L1739.163,174.947L1742.037,177.335L1748.744,178.656L1757.73,187.304L1753.654,187.526L1757.003,192.526L1761.701,195.119L1756.679,198.192L1762.05,205.109L1756.388,206.588L1760.896,212.769L1759.224,218.468L1753.571,214.256L1743.108,205.376L1727.083,191.958L1720.74,183.685L1720.834,180.139L1718.079,177.375L1723.725,176.055L1723.446,168.648L1724.149,162.641L1726.609,158.027L1720.119,149.931L1715.411,150.414L1718.606,155.141L1714.933,161.473L1702.872,154.382L1693.788,156.339L1693.738,166.052L1701.495,169.641L1693.074,171.171L1686.708,171.778L1682.419,167.538L1674.451,166.646L1671.978,169.531L1657.073,168.519L1644.008,170.256L1640.55,181.775L1635.542,195.874L1643.63,196.629L1649.272,200.412L1655.057,201.764L1655.415,198.734L1660.958,199.133L1673.712,205.797L1678.329,210.964L1679.671,217.07L1685.149,224.385L1690.324,234.268L1689.315,243.247L1690.622,247.555L1688.725,254.818L1686.713,262.052L1685.813,265.761L1681.318,269.441L1678.156,269.526L1673.073,266.473L1669.013,271.07L1669.462,273.167L1667.284,272.784L1666.319,274.925L1666.015,277.068L1668.744,281.591L1666.854,282.979L1666.537,284.101L1665.605,285.96L1662.71,286.997L1661.339,288.7L1662.577,291.445L1662.332,292.141L1664.931,293.171L1669.271,295.948L1677.459,303.427L1680.705,307.539L1684.137,314.855L1683.693,318.348L1679.421,319.564L1676.324,322.203L1671.778,322.752L1669.702,319.284L1668.619,314.522L1663.311,307.915L1666.72,306.852L1660.579,301.42L1657.457,300.208L1657.389,301.409L1656.11,301.935L1655.353,300.733L1653.722,300.154L1651.83,299.145L1651.936,296.356L1652.796,295.616L1651.759,294.458L1651.392,291.037L1650.532,289.997L1647.142,289.311L1643.842,287.618L1637.517,289.451L1635.158,292.42L1630.367,294.147L1631.725,291.209L1629.437,288.743L1631.4,284.496L1626.955,281.186L1623.613,283.417L1619.967,287.811L1618.733,291.895L1613.789,292.206L1612.497,295.155L1617.212,299.446L1621.955,300.487L1623.397,303.331L1628.37,305.177L1632.204,300.658L1637.988,303.127L1641.439,303.288L1643.815,306.616L1637.144,308.388L1636.164,311.814L1632.376,314.995L1631.498,319.446L1638.621,322.935L1643.173,329.202L1648.62,335.028L1654.044,339.917L1655.605,344.644L1652.825,346.378L1655.233,349.77L1659.058,351.751L1659.836,356.931L1659.954,361.97L1657.093,362.541L1655.044,369.433L1652.781,377.778L1649.429,385.37L1643.075,391.239L1636.487,396.602L1630.436,397.334L1627.597,400.155L1625.316,398.088L1622.789,401.253L1615.674,404.441L1610.017,405.41L1609.28,412.13L1606.285,412.506L1604.058,407.887L1604.946,405.432L1597.202,403.386L1594.785,404.43L1588.336,409.868L1584.728,415.877L1584.234,420.292L1589.5,427.001L1595.903,435.314L1601.485,439.244L1605.546,444.359L1609.505,456.129L1609.933,467.318L1605.66,471.507L1599.619,475.609L1595.465,480.907L1588.908,486.83L1586.592,482.76L1587.848,478.441L1583.409,474.834L1578.641,473.897L1576.104,470.591L1572.667,464.012L1567.381,461.094L1562.612,461.212L1562.934,456.215L1558.021,456.248L1558.266,463.247L1556.068,472.54L1554.697,478.161L1555.399,482.77L1559.06,482.964L1561.712,488.768L1563.046,494.282L1566.373,497.922L1569.803,498.665L1572.879,501.96L1574.201,502.563L1577.693,506.396L1580.229,510.661L1580.75,514.946L1580.281,517.843L1580.907,520.029L1581.43,523.787L1583.46,525.543L1585.784,531.174L1585.716,533.317L1581.736,533.748L1576.339,529.031L1569.564,523.981L1568.819,520.74L1565.411,516.486L1564.415,511.221L1562.239,507.753L1562.636,503.112L1561.274,500.42L1558.928,497.975L1557.811,494.831L1554.62,491.234L1551.717,488.219L1551.031,491.956L1549.753,488.424L1550.109,484.45L1551.347,478.355L1550.44,473.628L1551.767,468.761L1549.544,464.992L1549.351,458.057L1546.751,454.762L1544.135,447.148L1542.189,439.115L1539.106,433.839L1535.854,437.037L1530.101,441.57L1526.913,441L1523.297,439.514L1524.244,431.631L1522.299,425.665L1516.933,418.332L1517.276,416.039L1513.915,415.22L1509.268,410.04L1507.225,406.713L1506.439,403.472L1504.94,400.414L1502.094,396.709L1496.995,396.462L1497.876,399.078L1496.668,402.621L1494.146,401.329L1493.501,402.492L1491.856,401.792L1489.636,401.221L1489.193,403.547L1485.438,403.472L1478.824,404.786L1479.79,409.577L1477.348,413.336L1469.968,417.621L1464.722,425.106L1461.03,429.122L1455.99,433.279L1456.287,436.208L1453.694,437.78L1448.929,440.063L1446.362,440.397L1445.151,445.242L1447.05,453.523L1447.785,458.8L1445.877,464.841L1446.594,475.652L1443.714,475.965L1441.459,480.811L1443.265,482.91L1438.26,484.709L1436.6,489.038L1434.427,490.868L1428.838,484.924L1425.779,476.019L1423.225,469.601L1421.074,466.596L1417.67,460.48L1415.678,452.522L1414.392,448.548L1408.559,439.815L1405.058,427.485L1402.532,419.344L1401.687,411.634L1399.946,405.679L1392.357,409.481L1388.386,408.727L1380.363,401.017L1382.737,398.712L1380.832,396.214L1373.775,390.819L1369.584,389.204L1367.42,384.627L1362.582,379.792L1352.667,380.987L1343.808,381.106L1336.224,382L1325.701,380.072L1319.588,378.607L1313.319,377.789L1310.047,369.982L1307.298,368.851L1303.25,369.993L1298.133,373.073L1291.237,370.962L1285.151,366.073L1279.712,364.264L1275.336,358.223L1270.248,349.737L1267.493,350.771L1263.777,348.661L1262.103,351.148L1258.858,350.836L1260.337,353.646L1260.029,355.1L1262.338,359.892L1265.103,365.384L1267.947,366.838L1269.117,369.067L1273.134,371.737L1273.733,374.365L1273.428,376.486L1274.337,378.629L1276.092,380.406L1277.029,382.495L1277.975,384.056L1277.172,379.426L1278.296,376.088L1279.714,375.399L1281.579,377.401L1282.066,381.117L1281.218,384.864L1282.478,387.298L1283.416,386.985L1283.787,388.73L1287.978,387.728L1292.528,387.89L1295.859,388.084L1299.2,383.776L1302.844,379.695L1305.852,375.775L1307.163,373.611L1307.917,374.16L1307.719,376.788L1307.127,377.951L1308.436,382.969L1311.324,387.319L1314.605,389.624L1318.713,390.464L1322.063,391.616L1324.89,395.266L1326.579,397.377L1328.635,398.184L1328.753,399.606L1327.115,403.396L1326.411,405.184L1324.279,407.219L1322.608,411.57L1320.077,411.236L1319.059,412.754L1318.473,415.985L1319.527,420.238L1319.077,421.014L1316.526,420.992L1313.262,423.372L1312.978,426.473L1311.83,427.819L1308.375,427.765L1306.325,429.37L1306.54,431.943L1303.995,433.709L1300.895,433.106L1297.333,435.249L1294.8,435.605L1290.899,437.317L1290.007,440.149L1290.026,442.313L1284.646,444.995L1275.925,447.967L1271.176,452.457L1268.747,452.802L1267.063,452.436L1263.926,455.074L1260.433,456.291L1255.772,456.625L1254.385,456.991L1253.237,458.671L1251.792,459.134L1251.02,460.749L1248.242,460.609L1246.491,461.47L1242.621,461.147L1241.016,457.432L1241.021,453.954L1240.012,452.08L1238.707,447.375L1236.975,444.758L1238.08,444.446L1237.35,441.538L1237.965,440.311L1237.576,437.543L1236.705,434.819L1234.919,432.913L1234.334,430.371L1231.348,428.088L1228.079,422.758L1226.184,417.568L1222.092,413.196L1219.565,412.151L1215.545,406.088L1214.637,401.663L1214.637,397.894L1211.043,390.84L1208.317,388.353L1205.274,387.039L1203.226,383.389L1203.424,381.956L1201.663,378.651L1199.965,377.24L1197.478,372.502L1193.738,367.376L1190.621,363.004L1187.908,363.036L1188.475,359.537L1188.518,357.318L1188.957,354.777L1188.699,353.851L1187.407,356.414L1186.645,361.217L1185.45,364.533L1184.267,365.642L1182.287,363.586L1179.621,360.753L1175.013,351.633L1174.497,352.203L1177.289,358.923L1181.133,365.319L1185.989,375.226L1188.239,378.683L1190.259,382.28L1195.595,389.322L1194.577,390.431L1195,394.566L1201.724,400.274L1202.771,401.577L1204.92,407.822L1203.775,408.974L1204.942,415.522L1207.403,423.124L1209.601,424.686L1212.761,427.044L1216.364,434.399L1218.197,440.246L1221.389,443.347L1229.261,449.356L1232.512,452.974L1235.703,456.646L1237.542,458.832L1240.354,460.749L1241.762,462.72L1241.687,465.358L1238.57,466.887L1241.029,468.621L1242.903,469.794L1244.086,472.422L1246.697,475.092L1249.476,475.114L1254.691,473.488L1260.74,472.734L1265.592,470.753L1268.351,470.333L1270.294,469.17L1273.463,468.954L1275.247,468.825L1277.781,467.878L1280.708,467.242L1283.263,465.067L1285.372,465.046L1285.574,466.801L1285.237,470.505L1285.398,473.843L1284.304,476.148L1282.983,483.029L1280.509,490.125L1277.266,498.255L1272.677,507.581L1268.041,514.699L1261.573,523.378L1256.008,528.536L1247.656,534.846L1242.43,539.692L1236.27,547.392L1234.958,550.751L1233.674,552.259L1229.71,554.8L1228.31,557.449L1226.202,557.923L1225.341,562.403L1223.507,564.966L1222.348,569.198L1220.048,571.297L1217.326,579.137L1217.581,582.744L1221.128,585.07L1221.255,586.718L1219.637,590.562L1219.915,592.501L1219.479,595.537L1221.333,599.522L1223.474,605.799L1225.464,607.189L1226.278,610.042L1225.837,616.374L1226.309,621.963L1226.116,631.902L1226.958,635.025L1225.081,639.569L1222.701,643.984L1218.962,647.926L1213.762,650.348L1207.354,653.439L1200.754,660.266L1198.561,661.429L1194.455,665.952L1192.089,667.416L1191.39,671.95L1193.749,676.774L1194.612,680.5L1194.583,682.406L1195.571,682.094L1195.051,688.329L1193.988,691.279L1195.206,692.378L1194.237,695.027L1191.814,697.288L1187.174,699.431L1180.38,702.877L1177.824,705.235L1178.114,707.906L1179.478,708.336L1178.769,711.685L1177.058,716.316L1176.029,721.603L1174.398,724.478L1170.441,727.687L1169.316,728.613L1166.762,731.844L1164.997,735.107L1161.549,739.672L1154.917,746.23L1150.809,750.053L1146.539,752.95L1140.741,755.416L1138.009,755.75L1137.171,757.516L1134.011,756.568L1131.269,757.785L1125.599,756.557L1122.321,757.333L1120.143,756.999L1114.485,759.508L1109.862,760.52L1106.43,762.921L1103.996,763.072L1101.909,760.811L1100.12,760.692L1098,757.849L1097.697,758.733L1097.092,757.02L1097.349,753.294L1095.86,749.03L1097.638,747.867L1097.769,742.989L1094.552,737.034L1092.109,731.639L1092.09,731.628L1088.565,723.358L1084.706,718.556L1082.757,713.904L1081.745,707.712L1080.55,703.103L1078.974,693.304L1079.018,685.69L1078.405,682.223L1076.325,679.606L1073.582,674.34L1070.836,666.716L1069.72,662.721L1065.329,656.508L1065.07,651.63L1064.613,647.624L1065.456,642.035L1067.461,636.209L1067.799,633.474L1069.68,627.746L1071.038,625.129L1074.284,620.972L1076.128,618.14L1076.769,613.424L1076.509,609.816L1074.862,607.544L1073.411,603.689L1072.075,599.866L1072.389,598.552L1074.123,596.022L1072.478,589.884L1071.358,585.619L1068.577,581.592L1069.109,580.354L1068.333,578.383L1066.863,573.602L1062.29,566.861L1056.551,560.443L1052.843,555.188L1049.434,548.619L1049.618,546.509L1050.853,544.473L1052.209,539.843L1053.339,535.126L1052.286,534.157L1054.216,527.018L1055.012,521.989L1052.815,517.789L1050.244,516.712L1049.102,513.859L1047.663,512.943L1047.717,511.188L1041.885,513.482L1039.762,513.137L1037.604,514.569L1033.117,514.429L1030.095,510.445L1028.247,505.847L1024.259,501.647L1020.04,501.734L1015.093,501.723L1010.47,502.466L1005.947,503.823L997.142,507.548L994.03,509.734L988.977,511.576L983.968,509.767L981.422,509.842L977.505,508.593L973.909,508.668L967.26,509.778L963.355,511.608L957.79,513.945L956.699,513.783L955.223,513.837L949.456,510.801L944.385,505.955L939.615,502.477L935.863,498.374L934.352,497.9L930.332,495.337L927.451,491.934L926.481,489.608L925.835,484.903L923.41,481.144L921.259,478.646L919.838,477.828L918.462,476.557L917.851,473.746L917.042,472.347L915.446,471.302L912.484,468.642L910.136,468.222L908.895,466.435L908.93,465.466L907.262,464.119L906.922,462.752L906.077,457.874L906.848,455.052L904.632,450.099L901.91,447.838L904.378,446.632L907.15,442.163L908.538,438.889L908.131,435.465L909.757,432.331L910.571,426.333L910.123,420.055L909.526,416.889L910.163,413.713L908.809,410.687L905.982,407.941L906.292,405.259L906.629,402.309L908.774,400.575L910.663,397.258L910.365,395.105L912.382,390.614L915.547,386.565L917.407,385.542L918.963,381.838L919.182,378.446L921.266,374.515L924.966,372.19L928.628,365.696L931.519,363.166L936.599,362.455L940.99,358.115L943.744,356.414L948.393,351.105L947.247,343.19L949.449,337.72L950.257,334.36L953.819,330.063L959.23,327.156L963.239,324.529L966.938,317.94L968.676,314.049L972.573,314.071L975.706,316.768L980.74,316.327L986.211,317.736L988.517,317.8L993.62,314.328L999.325,313.232L1002.646,310.611L1007.72,308.678L1016.629,307.55L1025.309,307.035L1027.976,307.969L1032.88,305.478L1038.493,305.424L1040.67,306.895L1044.254,306.519L1049.876,303.953L1053.587,304.715L1053.537,307.926L1057.911,305.596L1058.339,306.809L1055.828,309.913L1055.901,312.856L1057.786,314.436L1057.305,319.93L1053.922,323.129L1055.054,326.596L1057.798,326.704L1059.248,329.73L1061.319,330.72L1067.67,332.917L1069.899,332.368L1074.406,333.423L1081.62,336.266L1084.389,341.93L1089.281,343.158L1096.982,345.828L1102.883,348.984L1105.434,347.336L1107.849,344.407L1106.312,339.54L1107.806,336.438L1111.471,333.456L1115.109,332.594L1122.414,333.897L1124.444,336.74L1126.45,336.761L1128.225,337.849L1133.605,338.592L1135.073,340.703L1142.195,340.595L1147.507,342.275L1152.978,344.159L1155.556,345.15L1159.53,343.126L1161.578,341.306L1166.266,340.778L1170.167,341.586L1171.905,344.741L1172.973,342.663L1177.409,344.17L1181.644,344.525L1184.14,342.921L1185.479,340.832L1185.075,340.466L1186.199,337.494L1186.768,332.691L1187.361,331.086L1187.508,331.022L1188.819,325.831L1190.927,321.352L1190.995,321.126L1189.902,316.263L1190.868,313.651L1188.564,310.772L1190.246,308.388L1187.116,308.935L1182.517,307.475L1179.35,311.127L1171.443,311.836L1166.784,308.431L1161.078,308.216L1160.154,310.847L1156.592,311.61L1151.156,308.227L1145.428,308.334L1141.674,302.032L1137.494,298.512L1139.52,293.589L1135.906,290.555L1140.987,284.507L1148.921,284.261L1150.499,279.468L1160.412,280.3L1166.029,276.215L1171.751,274.435L1180.197,274.297L1189.865,278.732L1197.658,281.175L1203.487,280.204L1208.016,280.77L1213.505,277.473L1213.787,274.787L1211.694,270.495L1208.317,268.175L1205.356,267.452L1203.127,265.527L1195.673,260.226L1189.468,257.859L1184.449,254.184L1187.923,253.18L1191.12,247.966L1187.848,245.5L1194.707,242.963L1194.294,241.607L1190.036,242.606L1186.158,243.111L1183.219,245.121L1178.612,245.447L1174.727,247.766L1175.687,251.648L1178.404,253.148L1183.475,252.778L1182.872,254.998L1177.551,256.088L1171.313,259.717L1168.302,258.432L1168.928,255.495L1163.129,253.666L1163.844,252.472L1168.291,250.392L1166.614,248.968L1158.584,247.397L1157.873,245.068L1153.38,245.837L1152.049,249.263L1148.846,253.877L1149.185,255.484L1146.932,256.841L1145.323,256.247L1144.952,263.816L1142.664,266.42L1141.387,270.91L1143.476,274.499L1144.388,276.929L1149.137,278.956L1148.385,280.503L1142.308,280.855L1140.344,282.798L1136.412,286.206L1134.469,283.268L1134.381,281.965L1131.223,281.784L1128.467,281.186L1122.399,282.83L1126.331,286.377L1123.804,287.404L1120.932,287.404L1117.882,284.154L1117.047,285.543L1118.555,289.322L1121.429,292.292L1119.59,293.685L1122.763,296.603L1125.506,298.437L1125.909,302.021L1120.916,300.336L1122.746,303.578L1119.48,304.243L1121.936,309.838L1118.454,309.913L1113.914,307.153L1111.546,302.086L1110.283,297.869L1108.018,294.951L1105.047,291.337L1104.565,289.536L1103.633,289.097L1103.426,287.704L1100.383,285.575L1099.691,282.574L1099.759,278.273L1100.294,276.311L1099.359,275.32L1098.228,274.829L1096.616,272.784L1094.3,271.527L1089.312,269.207L1086.178,266.941L1081.383,265.07L1076.787,260.449L1077.772,259.982L1075.269,257.35L1075.023,255.23L1071.711,254.247L1070.356,256.947L1068.727,254.85L1068.692,252.683L1068.866,252.588L1069.948,252.018L1065.896,251.11L1061.951,253.328L1062.409,256.427L1061.899,258.21L1063.748,261.405L1068.71,264.57L1071.608,269.76L1077.632,274.829L1081.635,274.798L1082.989,276.183L1081.636,277.441L1086.407,279.713L1090.332,281.623L1095.006,284.913L1095.637,286.099L1094.838,288.357L1091.748,285.404L1087.169,284.368L1085.289,288.454L1089.184,290.801L1088.792,294.114L1086.641,294.49L1084.204,299.918L1082.05,300.411L1081.952,298.469L1082.815,295.069L1083.855,293.718L1081.601,290.051L1079.813,286.858L1077.62,286.067L1075.924,283.343L1072.529,282.2L1070.151,279.66L1066.311,279.254L1062.14,276.407L1057.242,272.315L1053.588,268.686L1051.712,262.477L1049.16,261.755L1044.95,259.685L1042.655,260.534L1039.831,263.444L1037.746,263.901L1033.25,267.452L1023.166,265.75L1015.8,267.792L1015.265,271.57L1015.591,275.234L1010.774,279.425L1004.183,280.759L1003.726,282.883L1000.55,286.377L998.55,291.53L1000.572,295.155L997.565,297.976L996.427,302.096L992.46,303.363L988.703,308.248L982.036,308.334L977.019,308.216L973.683,310.461L971.627,312.856L969.054,312.33L967.145,310.192L965.733,306.541L960.861,305.553L958.697,307.196L955.961,306.304L953.234,307.002L954.189,302.043L953.83,298.147L951.52,297.557L950.349,295.155L950.917,291.016L953.076,288.711L953.544,286.152L954.765,282.36L954.754,279.692L953.805,277.43L953.668,275.298L954.107,270.825L952.128,268.09L959.507,263.561L965.682,264.698L972.505,264.655L977.896,265.729L982.112,265.4L990.327,265.602L992.987,261.84L994.026,249.379L988.927,242.848L985.305,239.704L977.794,237.31L977.403,232.801L983.805,231.451L992.035,233.042L990.547,226.044L995.158,228.699L1006.517,223.886L1007.944,218.862L1012.164,217.629L1016.007,216.418L1018.456,214.742L1022.435,205.776L1028.859,203.241L1032.817,203.415L1033.684,202.133L1037.629,201.805L1038.585,203.138L1041.634,200.156L1040.436,197.886L1040.025,194.466L1037.939,191.137L1037.476,185.034L1038.153,183.434L1039.38,181.645L1043.405,181.283L1044.92,179.648L1048.487,177.975L1048.56,181.022L1047.336,182.951L1048.002,184.621L1050.584,185.518L1049.61,187.768L1048.176,187.122L1045.106,191.421L1046.574,194.344L1046.793,196.67L1051.656,198.08L1051.755,200.228L1056.489,199.092L1059.009,197.436L1064.529,199.819L1066.95,201.754L1070.008,199.972L1077.104,197.181L1082.807,195.139L1087.617,196.16L1088.15,197.63L1092.708,197.702L1093.435,195.047L1099.643,193.104L1097.949,188.071L1097.48,183.585L1099.193,179.858L1103.213,177.835L1107.571,182.267L1111.254,182.147L1111.373,177.605L1111.304,174.119L1109.758,174.867L1106.521,172.773L1105.563,169.392L1110.989,167.765L1116.513,166.913L1121.582,167.875L1126.21,167.706L1130.653,164.47L1125.388,161.718L1117.372,162.18L1109.883,164.303L1102.79,165.538L1099.669,162.366L1095.038,160.453L1095.122,154.781L1092.148,149.602L1093.692,146.284L1097.014,142.72L1105.696,136.612L1108.303,135.436L1107.39,133.079L1100.963,130.459L1093.979,132.026L1090.546,135.918L1091.793,139.354L1085.682,143.9L1077.986,148.8L1075.856,156.875L1079.553,160.943L1084.253,164.165L1080.991,170.763L1076.44,172.136L1075.845,182.056L1073.837,187.637L1068.14,187.061L1065.94,191.796L1060.558,192.069L1058.587,186.426L1054.17,179.678L1050.033,171.34L1046.711,167.736L1038.22,174.538L1032.215,175.915L1025.762,172.913L1023.9,166.606L1021.98,153.245L1025.873,149.563L1037.103,144.783L1045.194,138.954L1052.267,131.162L1061.131,120.555L1067.489,116.479L1077.636,109.741L1086.073,107.413L1092.755,107.69L1097.891,103.336L1105.213,103.566L1112.101,102.522L1125.686,106.368L1120.902,107.78L1126.259,111.125L1129.908,109.262L1137.512,112.504L1149.073,113.777L1166.633,119.892L1170.708,122.483L1172.236,126.128L1168.556,129.027L1162.135,130.497L1142.102,126.304L1139.218,127.003L1147.223,131.05L1150.113,139.354L1156.143,141.074L1159.936,142.538L1159.694,139.803L1156.271,137.296L1158.481,135.257L1169.904,138.754L1173.076,137.382L1168.881,133.286L1176.902,127.87L1180.888,128.187L1185.523,130.113L1186.572,126.323L1181.891,123.057L1182.707,119.8L1178.414,116.433L1190.592,118.174L1194.154,121.218L1189.174,121.892L1190.37,124.929L1194.38,126.816L1200.381,125.626L1199.991,122.132L1207.57,119.533L1219.835,114.889L1223.04,115.154L1220.533,118.44L1225.902,119L1227.976,117.147L1235.616,117L1240.572,114.762L1246.929,118.018L1249.711,114.442L1243.788,111.325L1244.964,109.56L1257.816,111.18L1264.401,112.859L1282.819,119.027L1283.896,116.195L1278.037,113.341L1277.241,112.205L1272.024,111.678L1271.863,109.144L1267.154,105.023L1265.983,103.345L1270.228,98.631L1269.609,93.952L1271.806,92.948L1283.075,94.298L1285.951,97.152L1285.166,101.356L1288.793,103.026L1292.579,106.698L1296.402,114.005L1303.029,117.312L1303.528,120.942L1300.064,128.728L1305.369,129.542L1305.841,127.552L1309.603,126.146L1309.028,123.427L1310.977,120.831L1306.593,117.742L1306.206,114.178L1301.447,113.732L1298.537,110.754L1298.163,105.423L1290.002,101.162L1294.561,97.668L1290.941,94.004L1292.806,93.891L1296.987,96.742L1299.106,101.744L1304.049,102.698L1299.488,98.946L1304.545,96.908L1312.487,96.638L1322.083,99.587L1315.165,95.288L1310.339,89.848L1316.191,88.828L1325.63,89.051L1333.374,88.392L1327.881,85.76L1329.225,82.487L1333.432,82.354L1338.298,79.931L1347.51,79.281L1347.331,77.954L1356.605,77.505L1360.868,78.592L1366.288,76.032L1373.183,76.114L1371.72,74.053L1372.719,72.032L1378.857,70.107L1387.08,71.625L1383.614,72.792L1392.85,73.514L1396.874,75.87L1398.765,74.714L1409.618,74.77L1421.079,77.114L1426.461,78.92L1428.819,81.45L1426.493,82.902L1419.813,85.675L1418.656,87.163L1424.227,87.871L1431.368,89.145L1433.708,88.187L1439.468,91.438L1439.635,90.122L1444.852,89.325L1458.23,90.157L1462.043,92.533L1479.229,93.294L1474.56,89.411L1483.878,90.294L1489.999,90.268L1499.755,92.956L1505.776,96.237L1506.173,98.394L1516.243,102.486L1525.148,104.614L1522.084,99.139L1531.446,101.479L1536.38,100.079L1546.164,101.682L1547.137,100.22L1554.605,100.95L1545.206,96.141L1547.27,93.917L1587.421,97.257L1595.266,100.334L1611.443,104.32L1626.115,103.327L1635.36,104.196L1641.934,106.368L1647.094,110.247L1654.244,111.769L1658.119,110.672L1665.105,110.537L1674.306,111.588L1681.116,110.989L1695.284,115.775L1697.8,114.051L1689.383,110.618L1687.564,108.245L1702.764,109.741L1710.678,109.415L1726.34,111.969L1735.731,114.315L1768.676,136.175ZM264.269,114.315L264.269,114.315L264.269,114.315L267.956,118.44L270.702,123.862L265.352,127.273L266.196,128.644L271.032,124.651L281.191,125.468L282.119,130.628L274.551,133.042L266.792,133.616L259.085,139.097L255.771,140.261L251.967,140.099L251.413,138.134L248.025,136.497L250.525,134.068L247.492,133.164L241.641,133.88L242.165,131.932L246.088,129.879L239.093,131.191L237.189,133.804L231.325,136.174L231.324,136.175L264.269,114.315ZM609.697,113.541L605.573,115.428L601.444,113.796L597.613,114.388L594.134,111.969L599.167,110.31L604.032,108.003L606.986,109.515L608.584,110.473L608.948,111.488ZM1716.483,102.552L1719.588,104.374L1715.647,104.64L1712.14,102.982L1713.466,100.801L1716.483,102.552ZM286.534,100.801L286.536,100.801L286.535,100.801L283.517,102.552L286.534,100.801ZM286.535,100.801L287.415,100.589L290.751,100.598L293.946,102.088L292.39,102.805L286.174,104.054L280.412,104.374ZM632.173,111.452L627.814,116.955L636.581,112.731L638.794,116.195L634.519,120.214L635.8,123.9L643.037,119.956L649.488,115.282L654.142,109.397L659.575,109.804L664.989,110.591L668.533,113.25L666.894,115.921L661.799,118.807L662.695,121.717L660.327,124.382L649.484,128.224L643.044,129.074L639.872,127.413L636.644,130.188L629.249,134.87L626.29,137.315L618.644,141.131L612.22,141.504L607.097,143.9L604.211,147.594L598.635,148.308L589.992,152.944L580.646,159.425L575.737,163.998L570.827,170.793L576.829,171.778L575.264,177.295L574.545,181.785L581.716,180.611L588.716,183.182L591.972,185.448L593.646,188.263L598.541,189.901L602.068,192.424L609.615,192.769L614.39,193.358L610.839,198.571L609.138,204.657L609.194,211.459L613.607,217.256L618.253,215.269L623.806,209.006L626.044,199.42L624.346,196.241L633.32,193.429L640.748,189.224L645.455,185.075L647.158,181.102L646.719,176.075L643.621,171.638L652.412,165.498L653.453,160.238L657.224,151.257L661.074,149.931L667.675,151.489L671.882,152.042L676.365,150.54L679.36,152.478L682.972,155.813L683.134,158.047L690.817,158.486L688.195,163.349L685.959,170.743L689.657,171.658L691.279,175.126L699.416,171.857L706.813,165.389L711.063,162.69L712.119,167.894L714.654,175.396L716.681,182.499L713.259,186.234L718.083,189.598L720.939,193.023L727.81,194.568L730.114,196.496L730.111,201.611L733.514,202.41L734.628,204.698L732.643,211.531L728.379,213.823L724.208,215.962L715.503,218.136L707.69,223.179L699.104,224.177L689.147,222.878L681.855,222.836L676.667,223.262L670.957,227.685L663.719,230.425L653.633,238.622L645.852,244.352L650.446,243.332L661.311,235.18L673.476,230.017L681.037,229.4L684.329,232.435L678.272,236.596L677.613,243.289L677.723,247.987L683.248,251.099L691.808,250.191L698.939,243.195L697.907,247.713L700.476,249.97L693.051,254.057L680.769,257.775L674.963,260.311L667.908,264.836L664.194,264.369L665.675,259.059L676.087,253.888L667.968,254.089L662.126,254.85L662.323,256.905L655.944,259.939L650.018,262.106L644.053,263.965L639.79,268.069L638.807,269.111L637.678,272.443L638.321,275.778L640.396,275.938L640.579,273.636L641.674,275.032L640.71,276.833L636.918,277.857L634.497,277.729L630.356,278.838L628.018,279.148L624.919,279.457L620.06,281.282L627.999,280.097L629.149,281.293L621.34,283.182L618.047,283.193L618.437,282.424L616.326,284.176L617.761,284.464L615.256,289L610.007,293.879L610.116,292.249L609.073,291.916L607.846,290.34L607.89,293.75L608.792,294.887L608.247,297.268L605.861,299.735L601.46,304.801L601.061,304.544L603.911,300.229L601.944,297.804L602.893,292.549L601.076,295.283L600.997,299.306L597.982,298.362L600.842,300.358L599.351,306.39L600.723,306.831L600.668,309.021L599.704,315.371L595.118,320.092L589.127,321.976L584.684,325.702L581.916,326.111L578.617,328.448L577.329,330.591L570.44,334.715L566.677,337.741L563.246,341.521L561.37,346.033L561.355,350.459L562.005,355.897L563.522,360.398L563.009,363.155L564.235,370.531L563.314,374.817L562.662,377.294L560.672,381.181L558.912,381.978L556.338,381.213L555.93,378.424L554.093,376.96L552.166,371.49L550.541,366.622L550.198,364.135L552.149,359.903L551.365,356.403L548.282,351.083L546.403,350.104L540.3,353L539.419,352.677L537.466,349.705L534.458,348.133L528.174,348.941L523.552,348.23L519.332,348.671L516.825,349.565L517.447,351.353L516.751,353.937L517.612,355.197L516.393,356.026L514.6,355.089L512.301,356.295L508.412,356.102L505.169,352.731L500.274,353.528L496.701,352.053L493.229,352.505L488.317,353.991L482.262,358.707L476.235,361.453L472.568,364.49L470.692,367.355L469.68,371.737L469.313,374.795L469.892,376.96L469.91,376.971L469.888,376.981L466.693,382.538L464.952,387.125L463.159,395.643L462.127,398.755L462.532,402.223L463.757,405.324L464.123,410.256L467.077,414.994L467.825,418.623L469.539,421.757L475.176,423.447L477.083,426.107L482.188,424.33L486.5,423.684L490.799,422.543L494.432,421.455L498.293,418.86L500.149,415.145L501.325,409.804L502.537,407.941L506.499,406.272L512.534,404.796L517.378,405.022L520.802,404.484L521.926,405.83L521.333,408.899L517.871,412.679L516.035,416.555L516.898,417.665L515.696,420.41L513.679,425.375L512.473,423.738L511.304,423.846L511.203,424.782L512.255,424.815L511.937,426.538L510.697,429.294L511.056,430.274L510.203,432.557L510.491,433.16L509.477,436.38L508.187,438.06L507.164,438.265L505.818,440.472L507.492,441.624L508.076,440.677L509.629,441.484L510.182,441.732L511.524,440.612L513.114,440.526L513.578,441.043L514.472,440.73L516.992,441.301L519.571,441.129L521.447,440.429L522.163,439.718L523.907,440.052L525.182,440.483L526.658,440.332L527.817,439.783L530.264,440.666L531.13,440.806L532.708,441.99L534.165,443.412L536.089,444.392L537.38,446.136L536.84,446.75L536.426,448.171L536.793,450.497L535.313,452.673L534.487,455.225L534.067,458.035L534.233,459.672L534.142,462.537L533.229,463.161L532.496,465.885L532.752,467.565L531.507,469.191L531.625,470.904L532.417,471.948L533.591,475.405L535.601,477.968L538.06,480.681L539.946,482.964L539.751,484.31L541.973,484.601L542.525,484.084L543.993,485.646L546.759,485.193L549.243,483.578L552.698,482.297L554.716,480.401L557.778,480.767L557.543,481.392L560.653,481.618L563.093,482.717L564.808,484.623L566.836,486.389L569.709,486.582L574.145,482.146L576.478,481.467L576.649,479.368L577.988,473.983L581.371,471.033L584.899,470.914L585.425,469.59L589.777,470.117L594.366,466.908L596.651,465.487L599.549,462.418L601.492,462.806L602.847,464.486L601.623,466.629L601.367,468.125L598.042,468.868L599.696,471.754L599.441,475.082L596.762,478.775L598.627,483.826L601.065,483.416L602.54,478.818L600.928,476.579L600.923,471.765L608.04,469.17L607.462,466.176L609.54,464.173L611.27,468.642L615.186,468.739L618.6,472.293L618.704,474.393L623.713,474.457L629.726,473.8L632.779,476.643L637.028,477.429L640.249,475.448L640.412,473.843L647.355,473.466L654.062,473.37L649.217,475.254L650.985,478.258L655.435,478.732L659.531,481.866L660.234,486.959L663.143,486.819L665.284,488.316L668.89,490.653L672.199,494.799L672.258,498.072L674.372,498.223L677.289,501.335L679.43,503.543L686.121,504.824L686.757,503.672L691.312,503.209L697.287,504.921L699.189,505.621L703.274,507.129L709.088,512.502L709.96,515.108L711.887,514.806L713.211,518.328L716.191,529.451L719.195,530.496L719.307,534.889L715.082,540.134L716.821,542.05L726.756,543.041L726.981,549.427L731.231,545.249L738.3,547.532L747.669,551.419L750.43,555.145L749.557,558.666L756.068,556.706L767.027,560.077L775.416,559.829L783.794,565.095L791.082,572.224L795.437,574.054L800.229,574.313L802.299,576.316L804.333,584.413L805.333,588.269L803.338,598.789L800.577,602.935L792.955,611.787L789.634,618.98L785.698,624.504L784.317,624.623L782.938,629.307L783.865,641.228L782.819,651.027L782.447,655.227L780.834,657.736L780.364,666.243L775.277,674.545L774.768,681.114L770.497,683.87L769.473,687.693L763.503,687.672L755.046,690.116L751.411,692.948L745.42,694.811L739.387,699.872L735.368,706.183L735.055,710.932L736.334,714.442L736.061,720.871L735.199,723.983L731.829,727.483L727.352,738.682L723.378,743.721L720.194,746.704L718.732,752.756L715.837,756.385L714.229,760.391L708.901,763.923L704.749,762.652L701.996,763.331L696.584,760.606L693.011,760.811L689.099,757.29L689.377,760.606L697.185,766.052L697.337,770.437L701.182,773.197L701.555,776.301L698.261,784.426L691.291,787.827L681.157,789.146L675.285,788.513L677.321,792.287L677.455,797.022L679.237,800.205L676.73,802.426L671.703,803.301L666.114,800.996L664.57,802.65L667.078,808.909L671.093,810.805L673.325,808.824L675.773,812.094L671.656,814.041L668.744,817.944L669.967,824.264L669.843,827.615L665.1,827.636L662.193,830.828L662.307,835.503L668.762,840.062L673.925,841.314L674.102,846.891L669.497,850.382L668.927,857.619L665.393,860.055L664.54,862.921L668.647,869.277L673.294,872.806L671.147,872.496L666.865,872.455L665.185,873.949L661.827,876.141L663.566,881.806L661.618,881.95L655.379,879.982L648.005,875.75L640.468,872.27L637.231,868.409L637.031,864.828L632.828,860.751L627.898,850.235L627.675,844.278L631.081,839.473L622.83,837.663L625.543,832.159L623.473,821.759L629.886,823.967L628.089,810.954L624.113,809.282L625.158,817.136L621.648,816.254L620.219,807.258L618.292,795.567L619.383,791.237L616.127,785.059L613.712,777.912L615.868,777.708L616.421,767.46L617.606,757.29L617.727,747.803L614.493,738.273L615.07,733.028L612.967,725.167L614.824,717.403L613.9,705.095L613.961,691.882L614.057,677.657L612.533,667.244L610.428,658.285L604.495,654.623L603.759,652.018L592.139,645.632L581.537,638.675L576.908,634.745L574.166,629.49L574.943,627.659L569.574,619.314L563.279,607.576L557.311,594.902L554.873,592.005L552.905,587.321L548.37,583.164L544.27,580.591L545.981,577.748L543.056,571.685L544.637,567.227L548.985,563.21L551.864,558.451L550.597,555.673L548.51,558.634L545.098,555.845L546.201,554.046L545.18,548.275L547.135,547.316L548.168,543.353L550.294,539.251L549.901,536.656L553.006,535.299L556.873,532.757L556.148,530.787L558.238,530.313L558.045,527.125L559.404,524.821L562.204,524.39L564.662,520.395L566.897,517.057L564.881,515.539L566.056,511.845L565.003,506.03L566.253,504.361L565.568,498.977L563.447,495.585L561.65,493.754L560.617,490.319L562.069,488.618L560.679,488.187L559.735,486.087L557.044,484.31L554.564,484.719L553.321,486.927L550.983,488.531L549.742,488.747L549.133,490.071L551.633,493.528L550.083,494.346L549.234,495.283L546.596,495.606L545.802,491.805L545.025,492.893L543.186,492.516L542.181,489.953L539.902,489.533L538.488,488.79L536.088,488.801L535.857,490.179L535.26,489.221L532.287,487.81L531.229,486.475L531.934,485.366L531.789,483.966L530.323,482.437L528.199,481.187L526.333,480.369L526.062,478.506L524.663,477.375L524.911,479.228L523.712,480.746L522.529,478.98L520.775,478.355L520.093,477.063L520.262,475.136L521.126,473.122L519.619,472.228L520.995,471L519.212,468.998L516.793,466.435L515.737,464.281L513.549,462.289L510.98,459.414L511.689,458.423L512.529,459.381L512.989,458.94L512.2,456.948L510.564,456.388L509.808,457.895L506.584,457.798L504.632,457.185L502.438,455.925L499.385,455.526L497.928,454.159L495.185,453.05L491.707,452.931L489.283,451.671L486.561,449.044L481.013,442.195L478.371,440.127L474.047,438.469L470.872,438.932L466.125,441.334L463.25,441.958L459.529,440.278L455.516,439.072L450.686,436.154L446.645,435.26L440.768,432.299L436.539,429.262L435.385,427.561L432.349,427.184L426.983,425.17L425.114,422.263L419.73,418.655L417.625,414.639L416.812,411.537L418.757,410.924L418.476,409.104L420.015,407.456L420.396,405.259L419.032,402.395L418.966,399.864L417.659,396.655L413.958,390.334L409.349,385.359L407.464,381.397L403.351,378.801L402.699,377.24L404.432,373.309L401.998,371.834L399.542,368.733L399.319,364.296L396.542,363.779L394.272,360.43L392.591,357.329L392.916,355.348L391.417,350.545L391.002,345.678L391.881,343.233L388.823,340.703L386.933,340.983L384.45,339.227L382.733,341.812L382.622,344.87L381.632,349.651L382.685,352.268L385.419,356.651L385.892,358.148L386.584,358.6L386.701,360.786L387.681,360.7L387.674,364.802L388.915,366.418L389.491,368.679L392.098,371.91L392.504,377.832L393.506,380.621L394.396,383.604L394.051,386.953L396.652,387.168L398.321,390.054L399.772,392.897L399.446,394.039L396.711,396.375L395.748,396.343L394.991,392.477L392.076,388.848L388.719,385.768L386.235,384.153L387.405,379.501L387.376,376.055L385.255,374.085L382.206,371.242L381.277,372.06L380.32,370.402L377.362,368.862L375.123,365.169L375.641,364.695L377.794,365.05L380.448,362.67L381.431,359.806L378.556,355.262L375.901,353.506L375.127,349.533L374.466,345.355L373.666,340.272L373.488,334.554L373.785,331.302L371.7,327.641L369.5,326.876L369.629,325.056L366.769,324.733L365.533,323.021L360.855,322.386L359.932,321.363L360.717,317.875L358.28,311.492L357.841,302.676L358.707,301.206L357.367,299.113L355.872,293.803L357.717,288.636L356.726,285.18L360.62,279.959L363.382,274.552L364.455,269.728L369.882,263.805L377.928,252.44L382.174,244.089L383.971,238.769L384.401,235.894L385.771,234.688L391.562,236.785L390.507,242.648L392.746,241.007L395.176,235.915L396.778,230.843L396.113,230.833L390.687,224.76L389.066,222.109L382.112,219.566L383.452,214.153L387.004,210.418L382.898,207.822L385.996,202.933L383.896,198.54L386.42,195.435L385.773,193.165L383.287,191.258L386.549,186.053L384.929,181.243L387.637,175.656L383.607,175.276L376.504,175.126L372.797,173.431L369.503,167.339L366.323,166.23L360.623,164.146L353.891,164.638L347.911,161.973L345.281,159.504L338.989,160.728L335.542,164.766L332.644,165.142L326.122,166.359L319.995,168.331L313.637,169.581L316.782,166.131L325.137,160.424L331.853,158.643L332.259,157.197L322.981,160.414L315.604,164.283L304.481,168.44L304.64,171.29L295.746,175.516L288.152,177.985L281.603,179.798L277.648,182.418L267.149,185.488L262.722,188.294L254.584,190.843L251.854,190.387L245.731,192.059L238.823,194.099L232.78,196.108L222.858,197.835L223.207,196.823L231.37,194.008L237.909,192.161L246.394,188.88L252.89,188.213L257.812,185.76L268.059,182.207L270.385,181.012L276.05,178.926L281.773,174.448L287.965,170.972L280.733,172.753L280.405,171.738L275.535,173.879L275.96,170.893L272.331,173.002L273.976,170.078L266.738,172.425L263.957,172.425L267.626,168.926L270.963,166.775L270.529,164.697L263.355,165.815L262.837,163.083L261.466,161.689L265.447,158.418L265.074,155.959L270.926,152.653L278.525,149.457L283.793,146.534L287.844,146.12L289.691,147.025L296.661,144.284L299.18,144.774L304.699,143.017L307.168,140.433L306.062,139.421L312.019,137.249L309.314,137.315L303.187,138.534L300.258,139.784L298.493,138.534L291.601,139.173L287.104,137.82L288.326,135.559L287.343,132.327L296.458,130.01L309.548,127.31L312.994,127.31L308.689,130.066L317.867,129.86L319.046,126.444L316.762,124.344L317.589,121.615L316.871,119.294L313.662,117.577L320.022,114.752L327.531,114.579L336.19,112.123L340.895,109.524L348.756,107.002L353.587,106.394L364.667,104.063L367.82,104.418L378.112,101.629L382.51,102.725L381.951,105.085L385.191,104.072L391.49,104.383L389.532,105.592L394.4,106.493L399.227,105.966L405.402,107.627L412.472,108.129L414.662,108.819L421.176,107.959L425.24,109.551L428.701,110.301L434.678,111.588L437.975,114.169L441.63,114.67L447.887,112.423L454.786,110.754L460.052,111.406L468.86,109.063L477.054,107.735L477.255,109.94L481.694,108.694L485.541,106.207L487.65,106.769L489.045,111.542L498.465,107.923L494.532,111.969L500.468,111.098L503.701,109.533L508.278,109.84L512.079,112.087L519.567,114.06L524.277,114.971L528.632,114.625L531.449,117.367L522.999,120.057L529.344,121.228L541.149,120.582L545.557,119.634L546.942,122.9L553.989,120.14L551.923,117.834L556.303,115.985L561.523,115.738L565.311,115.199L567.437,116.488L568.92,119.432L573.913,119L579.091,121.449L586.264,120.582L592.194,120.711L594.563,117.339L599.016,116.396L603.868,118.229L599.625,123.381L605.803,119.037L608.998,119.184L615.298,113.75L613.685,110.446L610.816,108.29L616.381,102.477L624.559,98.701L628.994,99.534L630.936,101.832L631.253,107.753L625.498,110.365ZM556.796,92.533L552.09,94.932L562.529,93.38L565.066,95.967L572.372,93.345L574.092,95.027L571.902,100.097L576.138,97.957L579.028,92.688L583.249,91.946L586.224,92.758L588.382,94.828L585.67,99.85L583.214,103.531L587.393,106.136L592.317,108.631L589.758,110.98L582.702,111.415L583.458,113.477L580.312,115.455L573.662,114.607L567.971,113.15L562.938,113.477L553.531,115.309L540.467,116.25L534.574,116.625L534.858,114.078L530.76,112.613L526.543,113.213L525.897,108.973L529.178,108.416L536.37,107.511L541.808,107.744L548.017,106.823L541.555,105.592L532.526,106.011L526.952,105.904L526.988,103.974L538.562,101.876L532.349,101.956L526.986,100.58L534.796,96.699L539.915,94.654L553.976,91.55ZM595.941,91.007L588.956,94.376L586.72,90.81L588.821,90.097L594.209,89.891ZM703.565,92.628L702.832,94.038L698.793,93.891L694.688,93.778L689.873,94.472L688.999,94.16L686.914,91.455L688.597,89.625L690.719,89.291L699.097,89.831ZM664.128,92.343L664.436,95.54L671.566,91.412L683.13,89.333L685.428,94.602L682.145,97.974L691.102,96.472L696.396,94.428L703.095,97.03L706.719,99.499L705.61,101.771L713.795,100.589L715.674,103.912L723.963,105.993L726.12,108.12L726.966,113.122L717.978,115.629L725.604,119.165L731.497,120.361L734.768,125.384L741.16,125.746L737.858,129.607L727.102,136.07L723.103,133.682L719.329,128.355L713.503,129.046L711.201,132.214L713.893,135.455L718.318,138.039L719.298,139.536L719.254,145.129L715.695,149.225L710.972,147.681L702.464,143.132L706.019,148.028L708.805,151.479L708.513,153.478L697.768,151.189L690.159,147.873L686.413,145.11L688.829,143.506L684.059,140.596L679.405,137.867L678.51,139.498L665.535,140.395L663.103,138.458L668.51,134.332L676.566,134.238L685.741,133.522L685.535,131.538L688.672,128.784L697.376,123.427L697.709,121.016L697.281,119.147L692.652,116.524L685.553,114.689L689.083,113.322L687.03,109.994L683.671,109.686L681.771,107.878L678.476,109.451L670.657,110.138L656.812,108.946L649.506,107.386L643.638,106.591L641.838,104.747L648.02,102.354L642.391,102.336L645.73,97.074L652.834,92.49L658.7,90.414L669.862,89.059ZM614.177,88.863L617.671,89.925L625.2,89.282L624.725,90.758L618.692,93.198L622.443,95.401L617.328,100.053L608.94,102.071L605.523,101.629L604.686,99.648L598.876,95.662L600.625,94.021L607.943,94.654L607.063,91.317ZM1556.805,92.067L1550.978,92.101L1542.225,91.533L1541.162,91.266L1541.922,89.256L1546.064,88.794L1554.379,90.732ZM636.532,94.316L628.756,98.167L624.442,97.974L626.295,93.458L628.821,90.921L632.954,88.768L638.125,87.393L645.942,87.564L652.094,88.794L642.1,93.319ZM521.833,101.409L508.341,104.01L508.921,101.718L503.09,98.973L506.486,97.283L514.852,93.034L522.445,89.693L522.687,86.601L536.615,85.811L540.743,86.857L550.157,87.138L552.104,88.597L553.686,90.732L547.304,92.015L533.496,95.61L524.37,99.227ZM1569.579,82.645L1568.388,84.615L1561.608,84.167L1551.447,82.213L1549.72,80.623L1557.959,81.359ZM645.722,83.162L641.721,85.098L636.579,84.725L633.32,83.415L637.71,81.202L644.529,79.89L645.976,81.607ZM1544.416,80.301L1547.319,83.956L1533.147,83.82L1528.594,84.997L1516.262,81.773L1513.033,78.428L1516.483,77.521L1526.664,77.733ZM636.815,74.73L637.062,76.943L634.369,79.421L628.621,83.061L621.841,83.567L618.641,82.778L621.96,79.922L615.377,80.301L619.583,76.56L623.4,76.707L630.93,75.077L635.79,75.352ZM597.818,77.211L597.123,78.928L601.45,78.117L605.093,78.33L602.869,80.706L597.8,83.036L584.095,83.803L571.946,85.972L565.995,86.091L567.486,84.455L578.036,82.262L560.227,82.844L556.091,81.964L567.568,77.22L572.899,75.878L581.171,77.497L584.103,80.367L590.195,80.739L590.75,76.114L596.425,74.375L599.502,74.923ZM1230.322,104.96L1228.205,105.423L1214.775,104.738L1212.535,102.415L1204.64,101.021L1202.667,98.21L1206.127,97.109L1204.523,94.298L1209.863,89.959L1205.978,89.333L1212.612,84.92L1210.235,82.661L1216.997,80.079L1227.171,76.967L1238.857,76.073L1243.783,74.294L1250.451,73.683L1254.558,75.562L1253.273,77.057L1241.913,79.454L1232.116,81.781L1223.387,86.516L1220.605,91.455L1217.279,96.376L1220.404,100.677ZM652.949,72.928L655.282,74.455L662.546,74.447L664.029,76.016L661.244,77.823L664.377,78.92L665.58,80.071L670.414,80.285L675.493,80.697L682.478,79.643L690.507,79.224L696.257,79.569L698.598,81.408L697.637,83.44L694.126,84.768L687.526,85.845L683.191,85.234L671.567,86.006L663.652,86.1L658.071,85.48L649.53,83.871L651,81.16L653.101,78.748L651.659,76.642L644.655,76.057L642.078,74.576L645.738,72.632ZM577.773,70.352L572.092,73.98L566.935,75.635L563.157,75.87L553.378,77.921L546.374,78.666L542.802,77.619L554.279,74.036L566.297,70.972L571.777,71.044ZM658.333,70.94L656.523,71.075L650.052,70.773L650.661,69.466L657.866,69.537L659.396,70.4ZM599.957,70.107L591.303,71.458L588.051,69.94L593.09,68.456L599.035,67.984L603.109,68.708ZM1089.533,69.379L1081.987,71.29L1075.276,70.202L1077.449,69L1074.881,67.513L1082.053,66.582L1083.993,68.322ZM607.741,65.911L602.085,66.808L596.141,66.8L597.161,66.144L602.842,64.768L604.447,64.978ZM654.105,68.432L647.579,69.394L645.985,68.306L646.632,66.574L648.803,64.667L653.179,64.854L654.873,65.156L657.149,66.753ZM640.435,67.184L639.364,69.126L634.131,68.605L630.174,67.098L622.392,66.933L627.713,65.56L624.931,64.458L627.122,62.707L633.206,63.331L640.565,64.993ZM1377.702,67.27L1359.71,69.063L1358.344,63.015L1360.567,62.507L1363.615,62.799L1376.203,65.397ZM1064.061,60.9L1076.603,64.28L1068.107,66.09L1066.917,69.505L1063.941,70.384L1063.037,74.302L1058.632,74.488L1050.215,71.593L1053.221,69.924L1047.564,68.582L1039.964,64.683L1036.697,61.122L1045.98,59.512L1048.186,61.083L1053.181,61.022L1054.182,59.49L1059.277,59.347ZM1088.266,57.851L1095.615,59.319L1091.294,61.725L1081.243,62.262L1070.635,61.511L1069.664,60.268L1064.626,60.185L1060.331,58.217L1070.738,57.059L1076.052,58.055L1079.176,56.815ZM1176.969,57.269L1172.693,57.816L1169.782,58.133L1169.747,58.82L1166.134,59.519L1161.726,58.522L1162.871,57.22L1155.096,57.094L1161.367,56.351L1166.568,56.295L1168.016,57.409L1169.333,56.42L1172.124,55.75L1177.859,56.642ZM1355.799,64.629L1348.76,65.195L1337.182,63.878L1329.104,62.139L1322.385,58.955L1316.609,58.126L1322.022,55.318L1328.229,54.413L1337.642,56.447L1351.19,60.55ZM694.328,61.091L696.861,62.546L690.437,63.901L679.854,67.364L673.101,67.693L666.36,67.098L664.778,65.226L666.895,63.562L671.21,62.354L664.715,62.385L662.781,60.885L663.189,58.891L668.015,57.045L672.04,55.799L675.947,55.51L675.651,54.59L683.876,54.386L685.52,56.545L690.25,57.43L694.982,58.217ZM772.692,47.309L781.269,47.601L787.967,48.068L793.129,49.08L792.077,50.081L782.326,51.748L773.393,52.532L769.477,53.417L776.916,53.397L766.568,55.826L759.864,56.983L750.573,60.459L742.597,61.206L739.438,62.124L728.251,62.615L732.547,63.184L729.277,63.994L729.975,66.261L725.016,67.843L718.152,69.157L714.628,70.996L708.16,72.4L707.631,73.474L714.085,73.289L713.073,74.447L700.482,77.325L692.063,76L680.435,76.739L675.501,76.162L668.766,75.911L670.763,73.618L678.701,72.552L680.62,69.157L683.194,68.834L690.696,70.853L688.989,67.858L684.154,66.972L689.086,65.187L696.635,64.095L699.448,62.507L696.538,60.74L697.7,58.5L706.992,58.685L709.236,59.14L716.364,57.612L709.113,57.136L696.691,57.402L692.284,56.005L691.455,54.373L688.96,53.21L689.955,51.873L695.937,51.141L700.032,51.018L707.432,50.397L714.143,48.992L718.048,49.182L720.371,50.242L725.378,48.218L730.496,47.625L736.932,47.223L747.241,47.075L748.564,47.464L758.827,46.847L765.743,47.081ZM910.686,45.817L930.389,48.714L923.741,50.159L910.828,50.326L892.544,50.7L893.932,51.382L906.069,50.959L915.741,52.294L922.724,51.109L925.09,52.499L920.61,54.807L929.761,53.324L946.629,51.808L956.641,52.559L958.256,54.251L943.673,57.136L941.499,58.09L930.204,58.813L938.216,59.012L933.315,62.262L929.695,65.218L928.51,70.384L932.166,73.466L926.382,73.658L919.944,75.166L926.168,77.709L926.112,81.839L921.975,82.296L925.978,86.584L917.41,86.942L921.406,88.999L919.765,90.784L914.148,91.567L908.735,91.584L912.809,95.045L912.359,97.336L905.103,95.21L902.752,96.585L907.75,97.878L912.226,101.047L912.855,105.263L905.493,106.278L902.861,104.249L898.643,101.241L899.15,104.791L893.831,107.565L904.395,107.789L909.892,108.075L898.042,112.731L885.944,116.982L873.42,118.853L868.869,118.871L864.003,120.97L856.58,126.751L846.405,130.619L843.416,130.844L837.359,132.205L830.85,133.503L826.077,136.954L824.734,140.911L821.345,144.63L812.764,149.177L813.081,153.653L809.57,158.408L805.492,164.067L799.065,164.421L794.049,159.689L785.149,159.66L781.998,156.495L781.147,150.889L776.379,143.804L775.694,140.118L777.213,135.078L773.567,129.944L776.879,125.886L774.949,123.955L781.949,117.587L789.037,115.574L791.662,113.322L794.387,109.144L788.89,111.035L786.314,111.832L782.311,112.595L778.154,110.844L779.658,107.234L782.658,104.436L786.411,104.356L793.898,105.752L788.664,102.424L786.019,100.642L781.696,101.373L779.077,100.079L786.073,95.271L784.751,93.363L783.682,89.839L782.232,84.505L778.629,82.57L780.02,80.524L771.954,77.684L764.308,77.334L754.211,77.529L744.857,77.889L741.777,76.357L737.915,73.353L748.801,71.864L756.355,71.617L741.828,70.392L735.384,68.487L737.575,66.691L753.157,64.474L768.116,62.285L770.927,60.649L762.934,59.062L767.494,57.402L781.975,54.556L787.326,54.13L787.479,52.36L796.399,51.337L807.282,50.732L817.652,50.7L820.41,51.899L830.928,49.793L837.943,51.219L842.481,51.519L848.698,52.784L842.026,50.7L843.593,49.08L856.239,46.878L867.764,47.044L872.767,45.714L884.597,45.37Z"/>
  </g>
</svg>