<svg xmlns="http://www.w3.org/2000/svg" viewBox="0 0 1200 600" width="1200" height="600" role="img" aria-label="Stylized world map">
	<defs>
		<linearGradient id="bg" x1="0" y1="0" x2="0" y2="1">
			<stop offset="0" stop-color="#f9fafb"/>
			<stop offset="1" stop-color="#f3f4f6"/>
		</linearGradient>
	</defs>
	<rect width="100%" height="100%" fill="url(#bg)"/>
	<!-- Clean, abstract continents in a single neutral color (no borders) -->
	<g fill="#e9ecef" stroke="none" opacity="1">
		<!-- North & South America -->
		<path d="M80 110
						 C 150 110, 240 115, 310 130
						 C 360 140, 400 150, 445 175
						 C 465 186, 485 205, 505 220
						 C 520 232, 540 245, 555 255
						 C 575 269, 590 285, 600 300
						 C 585 305, 565 312, 548 320
						 C 532 328, 522 340, 518 354
						 C 512 374, 522 400, 532 420
						 C 548 452, 570 468, 592 470
						 C 610 472, 626 463, 640 450
						 C 630 470, 614 490, 598 502
						 C 566 526, 522 524, 492 498
						 C 460 470, 452 426, 460 390
						 C 466 360, 454 340, 432 322
						 C 410 304, 382 288, 354 276
						 C 292 250, 232 238, 176 232
						 C 138 228, 108 224, 88 218
						 C 76 214, 68 206, 66 198
						 C 64 188, 68 176, 74 168
						 C 84 154, 94 142, 108 132
						 C 120 124, 142 116, 172 114
						 Z"/>

		<!-- Afro-Eurasia (simplified) -->
		<path d="M650 150
						 C 700 138, 760 128, 820 120
						 C 880 112, 940 106, 1000 102
						 C 1050 98, 1100 96, 1140 98
						 C 1164 100, 1180 110, 1186 122
						 C 1192 136, 1186 154, 1168 166
						 C 1140 184, 1100 196, 1062 206
						 C 1018 218, 976 230, 930 250
						 C 900 264, 872 282, 850 304
						 C 836 318, 828 334, 820 352
						 C 808 378, 790 396, 760 404
						 C 736 410, 706 410, 682 404
						 C 660 398, 644 386, 636 370
						 C 626 350, 626 330, 632 312
						 C 640 286, 642 268, 634 250
						 C 626 232, 610 218, 594 210
						 C 580 202, 570 190, 570 178
						 C 570 166, 578 156, 592 152
						 C 606 148, 626 150, 650 150
						 Z"/>

		<!-- Australia -->
		<path d="M980 430
						 C 1008 428, 1042 430, 1072 438
						 C 1102 446, 1128 460, 1140 476
						 C 1148 486, 1148 498, 1138 508
						 C 1120 526, 1090 534, 1058 532
						 C 1030 530, 1002 520, 986 506
						 C 970 492, 964 474, 970 460
						 C 974 444, 992 432, 1010 430
						 Z"/>

		<!-- Greenland (abstract) -->
		<path d="M420 70
						 C 450 66, 478 70, 496 80
						 C 508 86, 516 98, 514 106
						 C 512 116, 500 122, 486 124
						 C 468 126, 448 122, 430 114
						 C 416 108, 410 98, 412 90
						 C 414 80, 420 74, 420 70 Z"/>
	</g>
	<!-- Note: pins are rendered dynamically on an overlay SVG by the app -->
</svg>
