<?xml version="1.0" encoding="UTF-8"?>
<!-- Simplified Robinson world silhouette (public domain). Replace with full Natural Earth Robinson for higher fidelity when ready. -->
<svg xmlns="http://www.w3.org/2000/svg" viewBox="0 0 2000 1100" width="2000" height="1100" role="img" aria-label="World map (Robinson)">
  <defs>
    <style>
      .land { fill: #cfe5ff; stroke: #2b6cb0; stroke-width: 1.2; }
    </style>
  </defs>
  <g class="land" opacity="0.96">
    <path d="M105.35,108.10 L307.71,108.10 L465.75,150.51 L569.69,241.96 L511.52,364.56 L454.38,438.48 L318.56,426.14 L133.57,333.86 L98.42,211.45 L105.35,108.10 Z"/>
    <path d="M551.41,475.53 L671.47,487.90 L726.23,612.10 L701.49,735.44 L676.57,827.45 L612.72,858.04 L566.79,766.14 L551.41,475.53 Z"/>
    <path d="M946.75,108.10 L1053.35,132.31 L1160.50,168.77 L1215.15,241.96 L1297.16,303.17 L1352.79,364.56 L1299.83,426.14 L1191.21,456.98 L1137.34,518.90 L1082.40,581.10 L1054.52,673.86 L1027.08,766.14 L972.92,766.14 L945.06,581.10 L945.48,426.14 L945.97,303.17 L946.75,108.10 Z"/>
    <path d="M1348.82,211.45 L1484.10,241.96 L1592.96,272.55 L1649.82,333.86 L1679.90,395.33 L1731.05,333.86 L1754.67,272.55 L1806.83,241.96 L1858.65,211.45 L1910.33,180.94 L1916.39,272.55 L1812.28,333.86 L1761.48,395.33 L1710.21,456.98 L1599.67,426.14 L1489.53,395.33 L1406.14,333.86 L1348.82,211.45 Z"/>
    <path d="M1082.40,581.10 L1109.26,643.02 L1119.66,704.67 L1135.38,766.14 L1151.83,747.72 L1163.18,704.67 L1174.82,643.02 L1164.81,581.10 Z"/>
    <path d="M1612.70,624.47 L1847.94,624.47 L1836.30,815.20 L1615.08,815.20 L1612.70,624.47 Z"/>
  </g>
</svg>